<?xml version="1.0" encoding="utf-8"?>
<!-- Generator: Adobe Illustrator 28.2.0, SVG Export Plug-In . SVG Version: 6.00 Build 0)  -->
<svg version="1.0" id="Layer_1" xmlns="http://www.w3.org/2000/svg" xmlns:xlink="http://www.w3.org/1999/xlink" x="0px" y="0px"
	 viewBox="0 0 198.4 51" style="enable-background:new 0 0 198.4 51;" xml:space="preserve">
<style type="text/css">
	.st0{fill:none;}
	.st1{fill:#73260E;}
	.st2{fill:#C33318;}
</style>
<g>
	<path class="st0" d="M32.7,12.9c0.1,0.1,0.1,0.1,0.2,0.1c0.1,0,0.2-0.1,0.2-0.2H33C32.9,12.8,32.9,12.8,32.7,12.9L32.7,12.9
		L32.7,12.9L32.7,12.9z"/>
	<path class="st0" d="M33.1,13c0,0,0.1,0.2,0.2,0.1c0,0,0.1-0.1,0-0.2C33.3,12.9,33.2,12.9,33.1,13L33.1,13L33.1,13z"/>
	<path class="st0" d="M37.9,34.2L37.9,34.2l-0.1-6.7c0,0-0.9-0.1-0.9,0.4s0,6.5,0,6.5h-0.3l-0.1-6.7l-0.6-0.3l-0.1,0.4l-0.3,0.1v6.4
		v0.5h0.1v0.1h0.9v-0.2h0.4v0.2l1.2-0.1v-0.3h-0.2L37.9,34.2z"/>
	<path class="st0" d="M32.5,11.3c0,0,0.2-0.3,0-0.3c0,0-0.1,0-0.1,0.1C32.5,11.2,32.5,11.4,32.5,11.3z"/>
	<path class="st0" d="M32.1,11c0,0-0.2,0-0.2,0.2s0,0.2,0,0.2S32.2,11.3,32.1,11z"/>
	<path class="st0" d="M32.4,13.1c0.1,0,0.2-0.1,0.2-0.2c0-0.1-0.1-0.3-0.2-0.3c-0.1,0-0.3,0.1-0.2,0.3C32.3,13,32.3,13.1,32.4,13.1z
		"/>
	<path class="st0" d="M31.7,12.8c0,0.3,0.3,0.3,0.3,0.3v-0.4C31.7,12.6,31.7,12.8,31.7,12.8z"/>
	<polygon class="st0" points="35.3,34.3 35.1,27.1 34.2,27.3 34.2,34.3 34.1,34.7 34.3,34.7 34.3,34.9 35.1,34.8 35.1,34.7 
		35.5,34.7 35.3,34.7 	"/>
	<path class="st0" d="M30.2,35.2v3.3v0.2c0.4-0.1,0.9-0.2,1.3-0.2c0.6-0.1,1.2-0.2,1.9-0.4c0.2,0,0.3-0.1,0.5-0.1v-3L30.2,35.2z"/>
	<path class="st0" d="M20.8,36L20.8,36v3.8c1.2-0.1,2.4-0.2,3.6-0.3c0.1,0,0.2,0,0.3,0c0.8-0.1,1.6-0.2,2.4-0.3v-3.7L20.8,36z"/>
	<path class="st0" d="M37.9,34.9L37.1,35v0.3l-0.2,0.1v1.9c0.2,0,0.3-0.1,0.5-0.1c0.1,0,0.3-0.1,0.4-0.1h0.1v-2V34.9z"/>
	<path class="st0" d="M34.5,35v0.3h-0.3v2.6h0.1c0.1,0,0.2,0,0.3-0.1c0.2,0,0.4-0.1,0.6-0.1V35H34.5z"/>
	<path class="st0" d="M35.7,35v0.2h-0.2c0,0,0,1.2,0,2.4l0,0c0.2-0.1,0.5-0.1,0.7-0.2c0.1,0,0.1,0,0.2,0l-0.1-2.5L35.7,35z"/>
	<path class="st0" d="M31.7,8.9c-0.2,0.1-0.3,0.3-0.3,0.3c0.1,0,0.1,0,0.2,0C31.8,9.1,31.9,8.9,31.7,8.9z"/>
	<path class="st0" d="M24.9,20.5L24.9,20.5L24.9,20.5L24.9,20.5c0.1-0.3,0.8-1.7,6.4-2.1c0,0,1-0.2,5.7,0.5c0,0,1-0.2-4-0.7
		c0,0,1.5,0.1,1.5-0.8s-0.8-0.6-1.2-0.7c-0.4-0.1-0.5-0.4-0.4-0.7c0,0,0.1,0.4,0.5,0.3c0.5-0.1,0.4-0.5,0.2-1c0,0,0.4,0.8,0.8,0.8
		c0.4,0,0.3-0.6,0.2-0.9c0.2,0.4,0.5,1.2,0.7,1.3c0.2,0.1,0.6,0-0.2-1.2c0,0,0.6,0.6,0.8,0.9c0.3,0.3,0.6,0.6,0.8,0.4
		c0,0,0.2,0.3,0.4,0.3l0,0c-0.1-0.1-0.2-0.2-0.2-0.3v-0.1c0-0.1-0.1-0.1-0.1-0.1l-0.1-0.1l-0.1-0.1l-0.1-0.1L36.4,16l-0.3-0.4
		c0,0-0.1-0.1-0.2-0.1l-0.2-0.1l-0.1-0.1l-0.1-0.1c-0.1-0.1-0.2-0.2-0.3-0.2l-0.3-0.2c0,0-0.1,0-0.1-0.1h-0.1l-0.1-0.1l-0.2-0.1
		c-0.1,0-0.1-0.1-0.2-0.1l-0.3-0.2l-0.3-0.1l0,0c-0.1,0-0.3-0.1-0.5-0.1h-2.2c-0.1,0-0.3,0.1-0.4,0.1c0,0-0.9,0.4-1,0.5
		s-0.2,0.1-0.3,0.2c-0.1,0.1-0.2,0.1-0.3,0.2c-0.1,0.1-0.2,0.1-0.3,0.2l-0.2,0.1c-0.1,0-0.1,0.1-0.2,0.1s-0.1,0.1-0.2,0.1l-0.1,0.1
		l-0.1,0.1l-0.1,0.1l-0.1,0.1L27.5,16c0,0,0,0-0.1,0.1s-0.2,0.2-0.2,0.3c-0.1,0.1-0.2,0.2-0.2,0.3c-0.1,0.1-0.1,0.2-0.2,0.3
		c-0.1,0.1-0.1,0.2-0.2,0.3c-0.1,0.2-0.3,0.4-0.4,0.7l-0.1,0.2c0,0.1-0.1,0.1-0.1,0.2l0,0l0,0l0,0l0,0l0,0l0,0l0,0l0,0l0,0l-0.1,0.2
		l-0.2,0.9v0.1h-0.1l-0.1,0.1l-0.1,0.1l-0.1,0.1c-0.1,0.1-0.2,0.2-0.2,0.2C25,20.2,25,20.3,24.9,20.5C24.9,20.4,24.9,20.4,24.9,20.5
		L24.9,20.5L24.9,20.5L24.9,20.5L24.9,20.5z"/>
	<path class="st0" d="M30.3,13.5c0.1-0.1,0.2-0.1,0.2-0.2c0-0.1,0-0.2,0-0.3c0,0.1,0,0.2,0,0.3s0.3,0,0.3-0.2s0.1-0.3,0.1-0.3
		s-0.1,0.2,0,0.3s0.2,0.1,0.2-0.1c0-0.2,0.2-0.4,0.2-0.4c-0.1,0-0.2,0-0.3,0c0,0.1,0,0.1,0,0.1v0.1h-0.1c-0.1,0-0.1,0-0.2,0
		c-0.1,0-0.2,0.1-0.2,0.1l0,0l0,0c-0.1,0-0.2,0.1-0.2,0.1v0.1v0.1h-0.1c-0.1,0-0.1,0-0.2,0.1c-0.1,0.1,0,0.4,0.1,0.6
		C30.2,13.7,30.3,13.6,30.3,13.5z"/>
	<path class="st0" d="M31.8,8.5C32,8.4,31.9,8,31.9,8s-0.2,0.2-0.3,0.3C31.5,8.5,31.6,8.6,31.8,8.5z"/>
	<path class="st0" d="M30.5,11.5c0,0-0.1,0.1,0,0.3C30.6,11.6,30.5,11.5,30.5,11.5z"/>
	<path class="st0" d="M20.3,27.8l4.1-0.6l-0.3,0.7l-2.9,0.4l-0.3,0.6V32v1.6v0.8v0.4c0,0.1,0,0.1,0,0.2v0.2v0.1h-0.1l0,0l0,0
		c0,0,0,0-0.1,0.1c0,0,0,0,0,0.1l0,0l0,0l0,0l0,0l0,0l0,0l0,0l0,0l0,0l0,0l0.1,0.1v0.1c0.8-0.1,6.5-0.7,6.5-0.7v-3.6
		c0,0,0.5-1.9,2.6-1c0,0-2.1-0.5-2.2,1.3h2.6v3.2l3.8-0.3l-0.2-7.4v-0.3l-0.5-0.1v-0.2h-0.2v-0.3h1.1l0.1-0.4l0.4,0.4h0.8v-0.4
		l0.5,0.4h0.8L37,26l0.4,0.4h0.9v-0.6h-0.7l-0.3-4.1h-0.2V22h-0.5l-0.2,0.2l0.4,3.7h-0.4l-0.2-4h-0.3v0.2h-0.6l-0.2,0.3l0.4,3.6
		h-0.4l-0.2-4.1v-0.2l-0.5,0.1l0.2,0.1v0.3h-0.5l-0.2,0.2l0.1,3.7h-0.4l-0.1-4.6v-0.1c0,0,0.4,0,0.2-0.3c0,0,0.2,0.3,0.5,0.3
		c0.2,0,0.7,0,0.7,0s0.2,0,0.2-0.4c0,0,0.1,0.3,0.4,0.3c0.2,0,1-0.1,1-0.1v-0.6c0,0,0.2,0.3,0.4,0.3s0.8-0.1,0.8-0.1v-0.4l0.7,0.7
		l0.2-0.1l0.5,0.5l0.1-0.2l-0.1-0.1L39,21.1l0.1-0.1l-0.7-0.6l-0.2,0.1l-0.8-0.7l-0.2,0.1l-0.6-0.4l-0.2,0.2l-0.6-0.4l-1.3,0.3
		l-0.4-0.4l-0.8,0.3L33,19.2l-0.5,0.1l-0.1-0.7c0,0-6.1,0-7.3,2L25,20.7v0.1l-0.2,0.1l-1.7,0.7l-0.4,0.2c-0.1,0.1-0.3,0.1-0.4,0.2
		l-0.2,0.1H22h-0.1l0,0l0,0l0,0l0,0l0,0l0,0l0,0l0,0h-0.1c0,0,0,0-0.1,0c0,0,0,0-0.1,0l0,0v0.1l0.1,0.1l0.1,0.1l3.3-0.6l-0.7,0.4
		l-0.6,0.2l-1,0.2l-0.1,0.1h-0.8l-0.2-0.1l0,0l0.1,0.1l0.1,0.1v0.1V23l0.1,0.2l0.1,0.1v0.1l-0.2,0.8l-0.1,0.9c0,0.3-0.1,0.6-0.1,0.9
		c0,0.2,0,0.3,0,0.5v0.1v0.1v0.2v0.2h-0.2h-0.4c0,0,0,0-0.1,0.1c0,0,0,0-0.1,0.1c0,0,0,0-0.1,0c0,0,0,0-0.1,0h-0.1h-0.1h-0.1h-0.1
		h-0.1h-0.1H20l0,0v0.1l0.1,0.2L20.3,27.8z"/>
	<path class="st0" d="M30.7,11.4c0-0.1,0-0.2,0-0.2s0,0-0.1,0s-0.2,0.2-0.2,0.2l0,0l0,0C30.6,11.6,30.8,11.4,30.7,11.4z"/>
	<path class="st0" d="M31.6,11c0,0-0.2,0.1-0.3,0.2c0,0.1,0,0.2,0.1,0.2s0.1-0.1,0.1-0.2C31.6,11.1,31.6,11,31.6,11z"/>
	<path class="st0" d="M31,10c0.2,0,0.5-0.1,0.7-0.2c0.1-0.1,0.3-0.4,0-0.4c-0.3,0-0.5,0.1-0.7,0.3c-0.1,0.1-0.1,0.4-0.1,0.4
		S30.9,10,31,10z"/>
	<path class="st0" d="M31.3,13.1c0.1,0.1,0.2,0.1,0.3,0s0.1-0.4-0.1-0.4c0,0-0.2,0-0.2,0.1C31.3,12.8,31.3,13,31.3,13.1z"/>
	<path class="st0" d="M30.9,11.4c0.1,0.1,0.2-0.1,0.1-0.2V11c-0.1,0-0.1,0-0.2,0.1l0,0v0.1l0,0C30.8,11.3,30.8,11.3,30.9,11.4z"/>
	<path class="st1" d="M18,40c0.8,0,1.7-0.1,2.6-0.2h0.1V36l0,0l6.4-0.6v3.7c0.6-0.1,1.3-0.2,1.9-0.3c0.1,0,0.2,0,0.3,0
		c0.3,0,0.6-0.1,0.9-0.1v-0.2v-3.3l3.7-0.2v3c0.1,0,0.2-0.1,0.3-0.1v-2.6h0.3V35h0.7v2.7h0.1c0.1,0,0.1,0,0.2,0c0-1.3,0-2.4,0-2.4
		h0.2v-0.2h0.7l0.1,2.5c0,0,0,0,0.1,0s0.2,0,0.3-0.1v-1.9l0.2-0.1v-0.3l0.8-0.1v0.1v2c1.4-0.4,2.7-0.8,4-1.2s2.6-0.9,3.8-1.4
		c0.7-0.3,1.3-0.5,1.9-0.8c0.5-0.2,1-0.4,1.5-0.7c0.3-0.1,0.5-0.2,0.8-0.4c0.2-0.1,0.5-0.2,0.7-0.4c0.1-0.1,0.3-0.1,0.4-0.2
		c0.4-1.7,0.7-3.4,0.7-5.3C51.6,15.1,42.1,5.6,30.4,5.6S9.2,15.1,9.2,26.8c0,5.1,1.8,9.7,4.8,13.4c0.9,0,1.9-0.1,3-0.1
		C17.3,40,17.7,40,18,40z M38,34.7l-1.2,0.1v-0.2h-0.4v0.2h-0.9v-0.1h-0.1H35v0.1h-0.8v-0.1H34l0.1-0.4v-7l0.9-0.2l0.2,7.2v0.4h0.1
		v-0.5v-6.4l0.3-0.1l0.1-0.4l0.6,0.1l0.1,6.7h0.3c0,0,0-6,0-6.5s0.9-0.4,0.9-0.4v6.7h0.1v0.2h0.2L38,34.7z M33.1,12.9L33.1,12.9
		C33.2,12.9,33.2,12.9,33.1,12.9c0.1,0.1,0.1,0.1,0.1,0.2C33.2,13.2,33.1,13.1,33.1,12.9C33.1,13,33.1,13,33.1,12.9z M32.8,12.8
		L32.8,12.8L32.8,12.8c0.1,0,0.2,0,0.2,0c0.1,0,0.1,0,0.1,0c0,0.1-0.1,0.2-0.2,0.2C32.8,13.1,32.8,13,32.8,12.8
		C32.7,12.9,32.7,12.9,32.8,12.8z M32.5,11c0.2,0,0.1,0.3,0,0.3C32.5,11.4,32.5,11.2,32.5,11C32.4,11.1,32.5,11,32.5,11z M32.4,12.6
		c0.1,0,0.2,0.1,0.2,0.3c0,0.1-0.1,0.2-0.2,0.2c-0.1,0-0.2-0.1-0.2-0.2C32.2,12.7,32.3,12.6,32.4,12.6z M31.9,11.2
		c0-0.2,0.2-0.2,0.2-0.2c0.1,0.3-0.2,0.4-0.2,0.4S32,11.3,31.9,11.2z M32,12.7v0.4c0,0-0.3,0.1-0.3-0.3C31.7,12.8,31.7,12.6,32,12.7
		z M31.6,8.4c0-0.2,0.3-0.3,0.3-0.3s0.1,0.4-0.1,0.5C31.6,8.6,31.5,8.5,31.6,8.4z M31.7,8.9c0.2-0.1,0.1,0.2-0.1,0.2
		c-0.1,0-0.1,0-0.2,0C31.4,9.2,31.5,9,31.7,8.9z M31,9.7c0.2-0.1,0.4-0.3,0.7-0.3c0.3,0,0.2,0.3,0,0.4C31.5,9.9,31.2,10,31,10
		c-0.1,0-0.1,0.1-0.1,0.1S30.9,9.8,31,9.7z M31.6,11.2c0,0.1,0,0.1-0.1,0.2c-0.1,0-0.2,0-0.1-0.2c0-0.1,0.2-0.2,0.3-0.2
		C31.6,11,31.6,11.1,31.6,11.2z M31.6,12.7c0.2,0,0.2,0.4,0.1,0.4c-0.1,0.1-0.3,0.1-0.3,0c-0.1-0.1,0-0.3,0-0.3
		C31.4,12.7,31.6,12.7,31.6,12.7z M30.8,11.2L30.8,11.2L30.8,11.2C30.9,11.2,30.9,11.1,30.8,11.2c0.1-0.1,0.1-0.2,0.2-0.2
		c0,0-0.1,0.1,0,0.2c0,0,0,0.2-0.1,0.2C30.8,11.3,30.8,11.3,30.8,11.2z M30.5,11.4c0,0,0-0.2,0.2-0.2c0,0,0,0,0.1,0c0,0,0,0.1,0,0.2
		C30.8,11.4,30.6,11.6,30.5,11.4C30.5,11.5,30.5,11.5,30.5,11.4L30.5,11.4z M30.5,11.5c0,0,0.1,0.1,0,0.3
		C30.4,11.6,30.5,11.5,30.5,11.5z M30.1,13.2c0-0.1,0.1-0.1,0.2-0.1h0.1V13c0,0,0,0,0-0.1c0,0,0.1-0.1,0.2-0.1l0,0l0,0
		c0,0,0-0.1,0.2-0.1c0,0,0.1,0,0.2,0h0.1v-0.1c0,0,0,0,0-0.1c0.1,0,0.2-0.1,0.3,0c0,0-0.2,0.2-0.2,0.4S31,13.1,31,13
		c-0.1-0.1,0-0.3,0-0.3s-0.1,0.1-0.1,0.3s-0.3,0.3-0.3,0.2s0-0.2,0-0.3c0,0.1,0,0.2,0,0.3s-0.1,0.1-0.2,0.2c0,0-0.1,0.2-0.2,0.3
		C30.1,13.7,30,13.4,30.1,13.2z M24.9,20.5L24.9,20.5C24.9,20.4,24.9,20.4,24.9,20.5c0.1-0.2,0.1-0.3,0.2-0.3
		c0.1-0.1,0.2-0.2,0.2-0.2l0.1-0.1l0.1-0.1l0.1-0.1h0.1v-0.1l0.2-1l-0.1-0.1l0,0l0,0l0,0l0,0l0,0l0,0l0,0l0,0l0,0
		c0-0.1,0.1-0.1,0.1-0.2l0.1-0.2c0.1-0.2,0.3-0.4,0.4-0.7c0.1-0.1,0.1-0.2,0.2-0.3c0.1-0.1,0.1-0.2,0.2-0.3c0.1-0.1,0.2-0.2,0.2-0.3
		c0.1-0.1,0.2-0.2,0.2-0.3c0,0,0-0.1,0.1-0.1l0.1-0.1l0.1-0.1l0.1-0.1l0.1-0.1l0.1-0.1c0,0,0.1-0.1,0.2-0.1s0.1-0.1,0.2-0.1l0.2-0.1
		c0.1-0.1,0.2-0.1,0.3-0.2c0.1-0.1,0.2-0.1,0.3-0.2c0.1-0.1,0.2-0.1,0.3-0.2c0.1-0.1,1-0.5,1-0.5c0.1,0,0.3-0.1,0.4-0.1h2.2
		c0.2,0,0.3,0.1,0.5,0.1l0,0l0.3,0.1l0.4,0.2c0.1,0,0.1,0.1,0.2,0.1l0.2,0.1l0.2,0.1h0.1c0,0,0.1,0,0.1,0.1l0.3,0.2
		c0.1,0.1,0.2,0.2,0.3,0.2l0.1,0.1l0.1,0.1l0.2,0.1c0.1,0,0.1,0.1,0.2,0.1l0.1,0.1l0.1,0.1l0.1,0.1l0.1,0.1l0.1,0.1l0.1,0.1l0.1,0.2
		c0.1,0.1,0.2,0.2,0.2,0.3l0,0c-0.3,0.1-0.4-0.3-0.4-0.3c-0.3,0.2-0.6-0.2-0.8-0.4c-0.3-0.3-0.8-0.9-0.8-0.9
		c0.8,1.2,0.4,1.2,0.2,1.2c-0.2-0.1-0.5-0.8-0.7-1.3c0.1,0.4,0.1,0.9-0.2,0.9c-0.4,0-0.8-0.8-0.8-0.8c0.1,0.5,0.2,0.9-0.2,1
		c-0.4,0.2-0.4-0.2-0.4-0.2c-0.1,0.2,0,0.6,0.4,0.7s1.2-0.2,1.2,0.7S33,18.2,33,18.2c4.9,0.5,4,0.7,4,0.7c-4.7-0.8-5.7-0.5-5.7-0.5
		c-5.6,0.5-6.2,1.8-6.4,2.2L24.9,20.5L24.9,20.5L24.9,20.5L24.9,20.5L24.9,20.5L24.9,20.5z M20.2,27.4L20.2,27.4c0.1,0,0.1,0,0.1,0
		h0.1h0.1h0.1h0.1h0.1h0.1H21c0,0,0,0,0.1,0c0,0,0,0,0.1-0.1c0,0,0,0,0.1-0.1h0.4h0.2V27v-0.2v-0.1v-0.1c0-0.2,0-0.3,0-0.5
		c0-0.3,0-0.6,0.1-0.9l0.1-0.9l0.1-0.9v-0.1l-0.3-0.2l-0.1-0.2v-0.1v-0.1l-0.1-0.1l-0.1-0.1l0,0l0.2,0.1h0.8l0.1-0.1l0.9-0.2
		l0.6-0.2l0.7-0.4l-3.3,0.6l-0.1-0.1l-0.1-0.1V22l0,0c0,0,0,0,0.1,0c0,0,0,0,0.1,0h0.1l0,0l0,0l0,0l0,0l0,0l0,0l0,0l0,0h0.1h0.1
		l0.2-0.1c0.1-0.1,0.3-0.1,0.4-0.2l0.4-0.2l1.7-0.8l0.2-0.1v-0.1c0.1,0,0.1-0.1,0.1-0.1c1.2-2,7.3-2,7.3-2l0.1,0.7l0.5-0.1l0.3,0.3
		l0.8-0.3l0.4,0.4l0.7-0.3l0.6,0.4l0.2-0.2l0.6,0.4l0.2-0.1l0.8,0.7l0.2-0.1l0.7,0.6l-0.1,0.1l0.1,0.1l0.1,0.1l-0.1,0.2l-0.5-0.5
		l0.1,0.3l-0.7-0.7v0.4c0,0-0.6,0.1-0.8,0.1S36,20.6,36,20.6v0.2c0,0-0.8,0.1-1,0.1s-0.4-0.3-0.4-0.3c0,0.4-0.2,0.4-0.2,0.4
		s-0.4,0-0.7,0c-0.2,0-0.5-0.3-0.5-0.3C33.3,21.1,33,21,33,21v0.1l0.1,4.6h0.4L33.4,22l0.2-0.2h0.5v-0.3l-0.2-0.1l0.5-0.1v0.2
		l0.2,4.1H35L34.6,22l0.2-0.3h0.6v-0.2h0.3l0.2,4h0.4l-0.4-3.7l0.2-0.2h0.5v-0.3h0.2l0.3,4.1h0.7V26h-0.9l-0.4-0.4l-0.1,0.3h-0.8
		l-0.5-0.4v0.4h-0.8l-0.4-0.4l-0.1,0.4h-1.1v0.7h0.2v0.2l0.5,0.1v0.3l0.1,7.5L29.7,35v-3.2h-2.6c0.1-1.8,2.2-1.3,2.2-1.3
		c-2.1-1-2.6,1-2.6,1v3.6c0,0-5.7,0.6-6.5,0.7v-0.1l0.3-0.1l0,0l0,0l0,0l0,0l0,0l0,0l0,0l0,0l0,0l0,0c0,0,0,0,0-0.1c0,0,0,0,0.1-0.1
		l0,0l0,0h0.1v-0.1v-0.2c0-0.1,0-0.1,0-0.2v-0.4v-0.8v-1.6V29l0.3-0.6l2.9-0.4l0.3-0.7l-4.1,0.6v-0.1L20.2,27.4L20.2,27.4z"/>
	<path class="st2" d="M54.7,32.1c-0.2,0.1-0.4,0.2-0.6,0.3c-0.2,0.1-0.5,0.3-0.8,0.5c-0.1,0.1-0.3,0.2-0.5,0.3s-0.3,0.2-0.5,0.3
		c-0.4,0.2-0.7,0.4-1.2,0.6c-0.3,0.2-0.6,0.3-0.9,0.5c-0.1,0.1-0.3,0.1-0.4,0.2c-0.2,0.1-0.5,0.2-0.7,0.4c-0.2,0.1-0.5,0.2-0.8,0.4
		c-0.5,0.2-1,0.4-1.5,0.7c-0.6,0.3-1.2,0.5-1.9,0.8c-1.2,0.5-2.5,1-3.8,1.4s-2.6,0.9-4,1.2H37c-0.1,0-0.3,0.1-0.4,0.1
		c-0.2,0-0.3,0.1-0.5,0.1c-0.1,0-0.2,0-0.3,0.1c0,0,0,0-0.1,0s-0.1,0-0.2,0c-0.2,0.1-0.5,0.1-0.7,0.2l0,0c-0.1,0-0.1,0-0.2,0.1h-0.1
		c-0.2,0-0.4,0.1-0.6,0.1c-0.1,0-0.2,0-0.3,0.1h-0.1c-0.1,0-0.2,0.1-0.3,0.1c-0.2,0-0.3,0.1-0.5,0.1c-0.6,0.1-1.2,0.3-1.9,0.4
		c-0.4,0.1-0.9,0.2-1.3,0.2c-0.3,0.1-0.6,0.1-0.9,0.2c-0.1,0-0.2,0-0.3,0c-0.6,0.1-1.3,0.2-1.9,0.3c-0.8,0.1-1.6,0.2-2.4,0.3
		c-0.1,0-0.2,0-0.3,0c-1.3,0.1-2.5,0.3-3.6,0.4H20c-0.9,0.1-1.7,0.1-2.6,0.2c-0.4,0-0.8,0-1.1,0.1c-1.1,0.1-2.1,0.1-3,0.2
		c-0.1,0-0.1,0-0.2,0c-0.9,0-1.8,0.1-2.4,0.1c-0.3,0-0.6,0-0.9,0c-0.3,0-0.5,0-0.7,0s-0.3,0-0.4,0c-0.1,0-0.1,0-0.1,0s0,0,0.1,0
		s0.2,0.1,0.4,0.1c0.2,0.1,0.4,0.1,0.6,0.2c0.3,0.1,0.5,0.2,0.9,0.3c0.7,0.2,1.5,0.4,2.4,0.6c0.6,0.1,1.3,0.3,2.1,0.4
		c0.4,0.1,0.7,0.1,1.1,0.2c1.2,0.2,2.5,0.3,3.8,0.4c0.1,0,0.2,0,0.3,0c1.3,0.1,2.6,0.1,4,0.1c1.5,0,3-0.1,4.6-0.3
		c1.6-0.2,3.1-0.4,4.7-0.8c1.6-0.3,3.1-0.8,4.6-1.2c1.5-0.5,3-1.1,4.3-1.7c1-0.4,1.9-0.9,2.8-1.4c0.4-0.2,0.7-0.4,1-0.6
		c1-0.6,2-1.3,2.8-1.9c0.1-0.1,0.2-0.2,0.4-0.3c1-0.7,1.8-1.5,2.5-2.1c0.2-0.2,0.3-0.3,0.5-0.5s0.3-0.3,0.5-0.5
		c0.3-0.3,0.6-0.6,0.8-0.8c0.2-0.3,0.4-0.5,0.6-0.7c0.2-0.2,0.3-0.4,0.4-0.5c0.2-0.3,0.3-0.5,0.3-0.5S55,31.9,54.7,32.1z"/>
	<path class="st1" d="M62,21.3c-0.7,0-1.3,0.3-1.7,0.9s-0.6,1.4-0.6,2.5c0,2.2,0.8,3.3,2.5,3.3c0.5,0,1-0.1,1.5-0.2
		c0.5-0.1,1-0.3,1.4-0.5v2.6c-1,0.4-2,0.6-3.3,0.6c-1.7,0-3.1-0.5-4-1.5s-1.4-2.5-1.4-4.4c0-1.2,0.2-2.2,0.7-3.1
		c0.4-0.9,1.1-1.6,1.9-2.1c0.8-0.5,1.8-0.7,3-0.7c1.2,0,2.4,0.3,3.6,0.8l-1,2.4c-0.4-0.2-0.8-0.4-1.3-0.5
		C62.9,21.3,62.5,21.3,62,21.3z"/>
	<path class="st1" d="M66.9,30.4V18.9H70v11.5H66.9z"/>
	<path class="st1" d="M77.2,30.4h-3.1v-9h-2.8v-2.5H80v2.5h-2.8C77.2,21.4,77.2,30.4,77.2,30.4z"/>
	<path class="st1" d="M85.3,23.2l2-4.3h3.4l-3.8,7v4.5h-3.1V26L80,18.9h3.4L85.3,23.2z"/>
	<path class="st2" d="M96.9,24.4h3.9V30c-0.6,0.2-1.2,0.3-1.9,0.4c-0.6,0.1-1.4,0.1-2.2,0.1c-1.7,0-3.1-0.5-4.1-1.6
		c-1-1-1.5-2.5-1.5-4.4c0-1.2,0.2-2.2,0.7-3.1s1.2-1.6,2.1-2.1s2-0.7,3.2-0.7s2.4,0.2,3.4,0.7l-0.5,1.2c-1-0.4-2-0.7-3-0.7
		c-1.4,0-2.5,0.4-3.3,1.3s-1.2,2-1.2,3.5c0,1.6,0.4,2.7,1.1,3.5c0.8,0.8,1.9,1.2,3.3,1.2c0.8,0,1.6-0.1,2.3-0.3v-3.4h-2.3V24.4z"/>
	<path class="st2" d="M111.9,18.9v7.4c0,1.3-0.4,2.3-1.2,3.1c-0.8,0.8-1.9,1.1-3.3,1.1s-2.5-0.4-3.2-1.1c-0.8-0.8-1.1-1.8-1.1-3.1
		v-7.4h1.3v7.5c0,1,0.3,1.7,0.8,2.2s1.3,0.8,2.3,0.8s1.7-0.3,2.2-0.8s0.8-1.3,0.8-2.2v-7.5H111.9z"/>
	<path class="st2" d="M120.9,30.4h-6.4V18.9h6.4v1.2h-5.1v3.7h4.8V25h-4.8v4.2h5.1V30.4z"/>
	<path class="st2" d="M129.6,27.3c0,1-0.4,1.8-1.1,2.4c-0.7,0.6-1.7,0.8-3,0.8c-1.4,0-2.4-0.2-3.1-0.5v-1.3c0.5,0.2,1,0.4,1.5,0.5
		c0.6,0.1,1.1,0.2,1.7,0.2c0.9,0,1.6-0.2,2-0.5c0.5-0.3,0.7-0.8,0.7-1.4c0-0.4-0.1-0.7-0.2-1c-0.2-0.3-0.4-0.5-0.8-0.7
		c-0.4-0.2-0.9-0.5-1.7-0.7c-1.1-0.4-1.8-0.8-2.3-1.4c-0.5-0.5-0.7-1.2-0.7-2.1s0.3-1.6,1-2.1s1.5-0.8,2.6-0.8s2.2,0.2,3.2,0.6
		l-0.4,1.2c-0.9-0.4-1.9-0.6-2.8-0.6c-0.7,0-1.3,0.2-1.7,0.5c-0.4,0.3-0.6,0.7-0.6,1.3c0,0.4,0.1,0.7,0.2,1s0.4,0.5,0.7,0.7
		s0.9,0.4,1.6,0.7c1.2,0.4,2,0.9,2.5,1.4C129.3,25.9,129.6,26.6,129.6,27.3z"/>
	<path class="st2" d="M135,30.4h-1.3V20.1h-3.6v-1.2h8.6v1.2h-3.6L135,30.4L135,30.4z"/>
	<path class="st2" d="M148.8,30.4h-1.3V25h-6.1v5.4h-1.3V18.9h1.3v4.9h6.1v-4.9h1.3V30.4z"/>
	<path class="st2" d="M161.5,24.6c0,1.8-0.5,3.3-1.4,4.3c-0.9,1.1-2.2,1.6-3.9,1.6s-3-0.5-3.9-1.6c-0.9-1-1.4-2.5-1.4-4.4
		s0.5-3.3,1.4-4.4c0.9-1,2.2-1.5,3.9-1.5s2.9,0.5,3.9,1.6C161,21.3,161.5,22.8,161.5,24.6z M152.3,24.6c0,1.6,0.3,2.7,1,3.5
		s1.6,1.2,2.9,1.2c1.3,0,2.2-0.4,2.9-1.2c0.7-0.8,1-2,1-3.5s-0.3-2.7-1-3.5c-0.6-0.8-1.6-1.2-2.9-1.2c-1.3,0-2.2,0.4-2.9,1.2
		C152.7,21.9,152.3,23.1,152.3,24.6z"/>
	<path class="st2" d="M172.3,18.9v7.4c0,1.3-0.4,2.3-1.2,3.1c-0.8,0.8-1.9,1.1-3.3,1.1c-1.4,0-2.5-0.4-3.2-1.1
		c-0.8-0.8-1.1-1.8-1.1-3.1v-7.4h1.3v7.5c0,1,0.3,1.7,0.8,2.2s1.3,0.8,2.3,0.8s1.7-0.3,2.2-0.8s0.8-1.3,0.8-2.2v-7.5H172.3z"/>
	<path class="st2" d="M181.5,27.3c0,1-0.4,1.8-1.1,2.4c-0.7,0.6-1.7,0.8-3,0.8c-1.4,0-2.4-0.2-3.1-0.5v-1.3c0.5,0.2,1,0.4,1.5,0.5
		c0.6,0.1,1.1,0.2,1.7,0.2c0.9,0,1.6-0.2,2-0.5c0.5-0.3,0.7-0.8,0.7-1.4c0-0.4-0.1-0.7-0.2-1c-0.2-0.3-0.4-0.5-0.8-0.7
		c-0.4-0.2-0.9-0.5-1.7-0.7c-1.1-0.4-1.8-0.8-2.3-1.4c-0.5-0.5-0.7-1.2-0.7-2.1s0.3-1.6,1-2.1s1.5-0.8,2.6-0.8s2.2,0.2,3.2,0.6
		l-0.4,1.2c-0.9-0.4-1.9-0.6-2.8-0.6c-0.7,0-1.3,0.2-1.7,0.5s-0.6,0.7-0.6,1.3c0,0.4,0.1,0.7,0.2,1c0.1,0.3,0.4,0.5,0.7,0.7
		s0.9,0.4,1.6,0.7c1.2,0.4,2,0.9,2.5,1.4C181.2,25.9,181.5,26.6,181.5,27.3z"/>
	<path class="st2" d="M189.8,30.4h-6.4V18.9h6.4v1.2h-5.1v3.7h4.8V25h-4.8v4.2h5.1V30.4z"/>
</g>
<g>
</g>
<g>
</g>
<g>
</g>
<g>
</g>
<g>
</g>
<g>
</g>
</svg>
