<?xml version="1.0" encoding="utf-8"?>
<!-- Generator: Adobe Illustrator 28.2.0, SVG Export Plug-In . SVG Version: 6.00 Build 0)  -->
<svg version="1.1" id="Layer_1" xmlns="http://www.w3.org/2000/svg" xmlns:xlink="http://www.w3.org/1999/xlink" x="0px" y="0px"
	 viewBox="0 0 198.4 51" style="enable-background:new 0 0 198.4 51;" xml:space="preserve">
<style type="text/css">
	.st0{fill:none;}
</style>
<g>
	<path class="st0" d="M35,12.8c0.1,0.1,0.1,0.1,0.2,0.1c0.1,0,0.2-0.1,0.2-0.2h-0.1C35.2,12.7,35.2,12.7,35,12.8L35,12.8L35,12.8
		L35,12.8z"/>
	<path class="st0" d="M35.4,12.9c0,0,0.1,0.2,0.2,0.1c0,0,0.1-0.1,0-0.2C35.6,12.8,35.5,12.8,35.4,12.9L35.4,12.9L35.4,12.9z"/>
	<path class="st0" d="M40.2,34.1L40.2,34.1l-0.1-6.7c0,0-0.9-0.1-0.9,0.4s0,6.5,0,6.5h-0.3l-0.1-6.7l-0.6-0.3l-0.1,0.4l-0.3,0.1v6.4
		v0.5h0.1v0.1h0.9v-0.2h0.4v0.2l1.2-0.1v-0.3h-0.2L40.2,34.1z"/>
	<path class="st0" d="M34.8,11.2c0,0,0.2-0.3,0-0.3c0,0-0.1,0-0.1,0.1C34.8,11.1,34.8,11.3,34.8,11.2z"/>
	<path class="st0" d="M34.4,10.9c0,0-0.2,0-0.2,0.2s0,0.2,0,0.2S34.5,11.2,34.4,10.9z"/>
	<path class="st0" d="M34.7,13c0.1,0,0.2-0.1,0.2-0.2c0-0.1-0.1-0.3-0.2-0.3c-0.1,0-0.3,0.1-0.2,0.3C34.6,12.9,34.6,13,34.7,13z"/>
	<path class="st0" d="M34,12.7c0,0.3,0.3,0.3,0.3,0.3v-0.4C34,12.5,34,12.7,34,12.7z"/>
	<polygon class="st0" points="37.6,34.2 37.4,27 36.5,27.2 36.5,34.2 36.4,34.6 36.6,34.6 36.6,34.8 37.4,34.7 37.4,34.6 37.8,34.6 
		37.6,34.6 	"/>
	<path class="st0" d="M32.5,35.1v3.3v0.2c0.4-0.1,0.9-0.2,1.3-0.2c0.6-0.1,1.2-0.2,1.9-0.4c0.2,0,0.3-0.1,0.5-0.1v-3L32.5,35.1z"/>
	<path class="st0" d="M23.1,35.9L23.1,35.9v3.8c1.2-0.1,2.4-0.2,3.6-0.3c0.1,0,0.2,0,0.3,0c0.8-0.1,1.6-0.2,2.4-0.3v-3.7L23.1,35.9z
		"/>
	<path class="st0" d="M40.2,34.8l-0.8,0.1v0.3l-0.2,0.1v1.9c0.2,0,0.3-0.1,0.5-0.1c0.1,0,0.3-0.1,0.4-0.1h0.1v-2V34.8z"/>
	<path class="st0" d="M36.8,34.9v0.3h-0.3v2.6h0.1c0.1,0,0.2,0,0.3-0.1c0.2,0,0.4-0.1,0.6-0.1v-2.7H36.8z"/>
	<path class="st0" d="M38,34.9v0.2h-0.2c0,0,0,1.2,0,2.4l0,0c0.2-0.1,0.5-0.1,0.7-0.2c0.1,0,0.1,0,0.2,0l-0.1-2.5L38,34.9z"/>
	<path class="st0" d="M34,8.8c-0.2,0.1-0.3,0.3-0.3,0.3c0.1,0,0.1,0,0.2,0C34.1,9,34.2,8.8,34,8.8z"/>
	<path class="st0" d="M27.2,20.4L27.2,20.4L27.2,20.4L27.2,20.4c0.1-0.3,0.8-1.7,6.4-2.1c0,0,1-0.2,5.7,0.5c0,0,1-0.2-4-0.7
		c0,0,1.5,0.1,1.5-0.8s-0.8-0.6-1.2-0.7c-0.4-0.1-0.5-0.4-0.4-0.7c0,0,0.1,0.4,0.5,0.3c0.5-0.1,0.4-0.5,0.2-1c0,0,0.4,0.8,0.8,0.8
		c0.4,0,0.3-0.6,0.2-0.9c0.2,0.4,0.5,1.2,0.7,1.3s0.6,0-0.2-1.2c0,0,0.6,0.6,0.8,0.9c0.3,0.3,0.6,0.6,0.8,0.4c0,0,0.2,0.3,0.4,0.3
		l0,0c-0.1-0.1-0.2-0.2-0.2-0.3v-0.1c0-0.1-0.1-0.1-0.1-0.1L39,16.2l-0.1-0.1L38.8,16l-0.1-0.1l-0.3-0.4c0,0-0.1-0.1-0.2-0.1
		L38,15.3l-0.1-0.1l-0.1-0.1c-0.1-0.1-0.2-0.2-0.3-0.2l-0.3-0.2c0,0-0.1,0-0.1-0.1H37l-0.1-0.1l-0.2-0.1c-0.1,0-0.1-0.1-0.2-0.1
		l-0.3-0.2L35.9,14l0,0c-0.1,0-0.3-0.1-0.5-0.1h-2.2c-0.1,0-0.3,0.1-0.4,0.1c0,0-0.9,0.4-1,0.5s-0.2,0.1-0.3,0.2
		c-0.1,0.1-0.2,0.1-0.3,0.2C31.1,15,31,15,30.9,15.1l-0.2,0.1c-0.1,0-0.1,0.1-0.2,0.1s-0.1,0.1-0.2,0.1l-0.1,0.1l-0.1,0.1L30,15.7
		l-0.1,0.1l-0.1,0.1c0,0,0,0-0.1,0.1c-0.1,0.1-0.2,0.2-0.2,0.3c-0.1,0.1-0.2,0.2-0.2,0.3c-0.1,0.1-0.1,0.2-0.2,0.3
		C29,17,29,17.1,28.9,17.2c-0.1,0.2-0.3,0.4-0.4,0.7l-0.1,0.2c0,0.1-0.1,0.1-0.1,0.2l0,0l0,0l0,0l0,0l0,0l0,0l0,0l0,0l0,0l-0.1,0.2
		L28,19.4v0.1h-0.1l-0.1,0.1l-0.1,0.1l-0.1,0.1c-0.1,0.1-0.2,0.2-0.2,0.2C27.3,20.1,27.3,20.2,27.2,20.4
		C27.2,20.3,27.2,20.3,27.2,20.4L27.2,20.4L27.2,20.4L27.2,20.4L27.2,20.4z"/>
	<path class="st0" d="M32.6,13.4c0.1-0.1,0.2-0.1,0.2-0.2c0-0.1,0-0.2,0-0.3c0,0.1,0,0.2,0,0.3s0.3,0,0.3-0.2s0.1-0.3,0.1-0.3
		s-0.1,0.2,0,0.3s0.2,0.1,0.2-0.1c0-0.2,0.2-0.4,0.2-0.4c-0.1,0-0.2,0-0.3,0c0,0.1,0,0.1,0,0.1v0.1h-0.1c-0.1,0-0.1,0-0.2,0
		c-0.1,0-0.2,0.1-0.2,0.1l0,0l0,0c-0.1,0-0.2,0.1-0.2,0.1V13v0.1h-0.1c-0.1,0-0.1,0-0.2,0.1c-0.1,0.1,0,0.4,0.1,0.6
		C32.5,13.6,32.6,13.5,32.6,13.4z"/>
	<path class="st0" d="M34.1,8.4c0.2-0.1,0.1-0.5,0.1-0.5S34,8.1,33.9,8.2C33.8,8.4,33.9,8.5,34.1,8.4z"/>
	<path class="st0" d="M32.8,11.4c0,0-0.1,0.1,0,0.3C32.9,11.5,32.8,11.4,32.8,11.4z"/>
	<path class="st0" d="M22.6,27.7l4.1-0.6l-0.3,0.7l-2.9,0.4l-0.3,0.6v3.1v1.6v0.8v0.4c0,0.1,0,0.1,0,0.2v0.2v0.1h-0.1l0,0l0,0
		c0,0,0,0-0.1,0.1c0,0,0,0,0,0.1l0,0l0,0l0,0l0,0l0,0l0,0l0,0l0,0l0,0l0,0l0.1,0.1v0.1c0.8-0.1,6.5-0.7,6.5-0.7v-3.6
		c0,0,0.5-1.9,2.6-1c0,0-2.1-0.5-2.2,1.3h2.6v3.2l3.8-0.3l-0.2-7.4v-0.3l-0.5-0.1v-0.2h-0.2v-0.3h1.1l0.1-0.4l0.4,0.4h0.8v-0.4
		l0.5,0.4h0.8l0.1-0.3l0.4,0.4h0.9v-0.6h-0.7l-0.3-4.1h-0.2v0.3h-0.5l-0.2,0.2l0.4,3.7h-0.4l-0.2-4h-0.3V22h-0.6l-0.2,0.3l0.4,3.6
		h-0.4l-0.2-4.1v-0.2l-0.5,0.1l0.2,0.1v0.3h-0.5l-0.2,0.2l0.1,3.7h-0.4l-0.1-4.6v-0.1c0,0,0.4,0,0.2-0.3c0,0,0.2,0.3,0.5,0.3
		c0.2,0,0.7,0,0.7,0s0.2,0,0.2-0.4c0,0,0.1,0.3,0.4,0.3c0.2,0,1-0.1,1-0.1v-0.6c0,0,0.2,0.3,0.4,0.3s0.8-0.1,0.8-0.1v-0.4l0.7,0.7
		l0.2-0.1l0.5,0.5l0.1-0.2l-0.1-0.1L41.3,21l0.1-0.1l-0.7-0.6l-0.2,0.1l-0.8-0.7l-0.2,0.1l-0.6-0.4l-0.2,0.2l-0.6-0.4l-1.3,0.3
		l-0.4-0.4l-0.8,0.3l-0.3-0.3l-0.5,0.1l-0.1-0.7c0,0-6.1,0-7.3,2l-0.1,0.1v0.1l-0.2,0.1l-1.7,0.7L25,21.7c-0.1,0.1-0.3,0.1-0.4,0.2
		L24.4,22h-0.1h-0.1l0,0l0,0l0,0l0,0l0,0l0,0l0,0l0,0h-0.1c0,0,0,0-0.1,0c0,0,0,0-0.1,0l0,0v0.1l0.1,0.1l0.1,0.1l3.3-0.6l-0.7,0.4
		l-0.6,0.2l-1,0.2L25,22.6h-0.8L24,22.5l0,0l0.1,0.1l0.1,0.1v0.1v0.1l0.1,0.2l0.1,0.1v0.1l-0.2,0.8L24.1,25c0,0.3-0.1,0.6-0.1,0.9
		c0,0.2,0,0.3,0,0.5v0.1v0.1v0.2V27h-0.2h-0.4c0,0,0,0-0.1,0.1c0,0,0,0-0.1,0.1c0,0,0,0-0.1,0c0,0,0,0-0.1,0h-0.1h-0.1h-0.1h-0.1
		h-0.1h-0.1h-0.1l0,0v0.1l0.1,0.2L22.6,27.7z"/>
	<path class="st0" d="M33,11.3c0-0.1,0-0.2,0-0.2s0,0-0.1,0s-0.2,0.2-0.2,0.2l0,0l0,0C32.9,11.5,33.1,11.3,33,11.3z"/>
	<path class="st0" d="M33.9,10.9c0,0-0.2,0.1-0.3,0.2c0,0.1,0,0.2,0.1,0.2s0.1-0.1,0.1-0.2C33.9,11,33.9,10.9,33.9,10.9z"/>
	<path class="st0" d="M33.3,9.9c0.2,0,0.5-0.1,0.7-0.2c0.1-0.1,0.3-0.4,0-0.4s-0.5,0.1-0.7,0.3c-0.1,0.1-0.1,0.4-0.1,0.4
		S33.2,9.9,33.3,9.9z"/>
	<path class="st0" d="M33.6,13c0.1,0.1,0.2,0.1,0.3,0s0.1-0.4-0.1-0.4c0,0-0.2,0-0.2,0.1C33.6,12.7,33.6,12.9,33.6,13z"/>
	<path class="st0" d="M33.2,11.3c0.1,0.1,0.2-0.1,0.1-0.2v-0.2c-0.1,0-0.1,0-0.2,0.1l0,0v0.1l0,0C33.1,11.2,33.1,11.2,33.2,11.3z"/>
	<path d="M20.3,39.9c0.8,0,1.7-0.1,2.6-0.2H23v-3.8l0,0l6.4-0.6V39c0.6-0.1,1.3-0.2,1.9-0.3c0.1,0,0.2,0,0.3,0
		c0.3,0,0.6-0.1,0.9-0.1v-0.2v-3.3l3.7-0.2v3c0.1,0,0.2-0.1,0.3-0.1v-2.6h0.3v-0.3h0.7v2.7h0.1c0.1,0,0.1,0,0.2,0c0-1.3,0-2.4,0-2.4
		H38V35h0.7l0.1,2.5c0,0,0,0,0.1,0s0.2,0,0.3-0.1v-1.9l0.2-0.1v-0.3l0.8-0.1v0.1v2c1.4-0.4,2.7-0.8,4-1.2s2.6-0.9,3.8-1.4
		c0.7-0.3,1.3-0.5,1.9-0.8c0.5-0.2,1-0.4,1.5-0.7c0.3-0.1,0.5-0.2,0.8-0.4c0.2-0.1,0.5-0.2,0.7-0.4c0.1-0.1,0.3-0.1,0.4-0.2
		c0.4-1.7,0.7-3.4,0.7-5.3C53.9,15,44.4,5.5,32.7,5.5S11.5,15,11.5,26.7c0,5.1,1.8,9.7,4.8,13.4c0.9,0,1.9-0.1,3-0.1
		C19.6,39.9,20,39.9,20.3,39.9z M40.3,34.6l-1.2,0.1v-0.2h-0.4v0.2h-0.9v-0.1h-0.1h-0.4v0.1h-0.8v-0.1h-0.2l0.1-0.4v-7l0.9-0.2
		l0.2,7.2v0.4h0.1v-0.5v-6.4l0.3-0.1l0.1-0.4l0.6,0.1l0.1,6.7H39c0,0,0-6,0-6.5s0.9-0.4,0.9-0.4v6.7H40V34h0.2L40.3,34.6z
		 M35.4,12.8L35.4,12.8C35.5,12.8,35.5,12.8,35.4,12.8c0.1,0.1,0.1,0.1,0.1,0.2C35.5,13.1,35.4,13,35.4,12.8
		C35.4,12.9,35.4,12.9,35.4,12.8z M35.1,12.7L35.1,12.7L35.1,12.7c0.1,0,0.2,0,0.2,0c0.1,0,0.1,0,0.1,0c0,0.1-0.1,0.2-0.2,0.2
		C35.1,13,35.1,12.9,35.1,12.7C35,12.8,35,12.8,35.1,12.7z M34.8,10.9c0.2,0,0.1,0.3,0,0.3C34.8,11.3,34.8,11.1,34.8,10.9
		C34.7,11,34.8,10.9,34.8,10.9z M34.7,12.5c0.1,0,0.2,0.1,0.2,0.3c0,0.1-0.1,0.2-0.2,0.2c-0.1,0-0.2-0.1-0.2-0.2
		C34.5,12.6,34.6,12.5,34.7,12.5z M34.2,11.1c0-0.2,0.2-0.2,0.2-0.2c0.1,0.3-0.2,0.4-0.2,0.4S34.3,11.2,34.2,11.1z M34.3,12.6V13
		c0,0-0.3,0.1-0.3-0.3C34,12.7,34,12.5,34.3,12.6z M33.9,8.3c0-0.2,0.3-0.3,0.3-0.3s0.1,0.4-0.1,0.5C33.9,8.5,33.8,8.4,33.9,8.3z
		 M34,8.8C34.2,8.7,34.1,9,33.9,9c-0.1,0-0.1,0-0.2,0C33.7,9.1,33.8,8.9,34,8.8z M33.3,9.6c0.2-0.1,0.4-0.3,0.7-0.3s0.2,0.3,0,0.4
		c-0.2,0.1-0.5,0.2-0.7,0.2c-0.1,0-0.1,0.1-0.1,0.1S33.2,9.7,33.3,9.6z M33.9,11.1c0,0.1,0,0.1-0.1,0.2c-0.1,0-0.2,0-0.1-0.2
		c0-0.1,0.2-0.2,0.3-0.2C33.9,10.9,33.9,11,33.9,11.1z M33.9,12.6c0.2,0,0.2,0.4,0.1,0.4c-0.1,0.1-0.3,0.1-0.3,0
		c-0.1-0.1,0-0.3,0-0.3C33.7,12.6,33.9,12.6,33.9,12.6z M33.1,11.1L33.1,11.1L33.1,11.1C33.2,11.1,33.2,11,33.1,11.1
		c0.1-0.1,0.1-0.2,0.2-0.2c0,0-0.1,0.1,0,0.2c0,0,0,0.2-0.1,0.2C33.1,11.2,33.1,11.2,33.1,11.1z M32.8,11.3c0,0,0-0.2,0.2-0.2
		c0,0,0,0,0.1,0c0,0,0,0.1,0,0.2C33.1,11.3,32.9,11.5,32.8,11.3C32.8,11.4,32.8,11.4,32.8,11.3L32.8,11.3z M32.8,11.4
		c0,0,0.1,0.1,0,0.3C32.7,11.5,32.8,11.4,32.8,11.4z M32.4,13.1c0-0.1,0.1-0.1,0.2-0.1h0.1v-0.1c0,0,0,0,0-0.1c0,0,0.1-0.1,0.2-0.1
		l0,0l0,0c0,0,0-0.1,0.2-0.1c0,0,0.1,0,0.2,0h0.1v-0.1c0,0,0,0,0-0.1c0.1,0,0.2-0.1,0.3,0c0,0-0.2,0.2-0.2,0.4s-0.2,0.2-0.2,0.1
		c-0.1-0.1,0-0.3,0-0.3s-0.1,0.1-0.1,0.3s-0.3,0.3-0.3,0.2s0-0.2,0-0.3c0,0.1,0,0.2,0,0.3s-0.1,0.1-0.2,0.2c0,0-0.1,0.2-0.2,0.3
		C32.4,13.6,32.3,13.3,32.4,13.1z M27.2,20.4L27.2,20.4C27.2,20.3,27.2,20.3,27.2,20.4c0.1-0.2,0.1-0.3,0.2-0.3
		c0.1-0.1,0.2-0.2,0.2-0.2l0.1-0.1l0.1-0.1l0.1-0.1H28v-0.1l0.2-1l-0.1-0.1l0,0l0,0l0,0l0,0l0,0l0,0l0,0l0,0l0,0
		c0-0.1,0.1-0.1,0.1-0.2l0.1-0.2c0.1-0.2,0.3-0.4,0.4-0.7c0.1-0.1,0.1-0.2,0.2-0.3c0.1-0.1,0.1-0.2,0.2-0.3c0.1-0.1,0.2-0.2,0.2-0.3
		c0.1-0.1,0.2-0.2,0.2-0.3c0,0,0-0.1,0.1-0.1l0.1-0.1l0.1-0.1l0.1-0.1l0.1-0.1l0.1-0.1c0,0,0.1-0.1,0.2-0.1s0.1-0.1,0.2-0.1l0.2-0.1
		c0.1-0.1,0.2-0.1,0.3-0.2c0.1-0.1,0.2-0.1,0.3-0.2c0.1-0.1,0.2-0.1,0.3-0.2c0.1-0.1,1-0.5,1-0.5c0.1,0,0.3-0.1,0.4-0.1h2.2
		c0.2,0,0.3,0.1,0.5,0.1l0,0l0.3,0.1l0.4,0.2c0.1,0,0.1,0.1,0.2,0.1l0.2,0.1l0.2,0.1h0.1c0,0,0.1,0,0.1,0.1l0.3,0.2
		c0.1,0.1,0.2,0.2,0.3,0.2l0.1,0.1l0.1,0.1l0.2,0.1c0.1,0,0.1,0.1,0.2,0.1l0.1,0.1l0.1,0.1l0.1,0.1l0.1,0.1l0.1,0.1l0.1,0.1l0.1,0.2
		c0.1,0.1,0.2,0.2,0.2,0.3l0,0c-0.3,0.1-0.4-0.3-0.4-0.3c-0.3,0.2-0.6-0.2-0.8-0.4c-0.3-0.3-0.8-0.9-0.8-0.9
		c0.8,1.2,0.4,1.2,0.2,1.2c-0.2-0.1-0.5-0.8-0.7-1.3c0.1,0.4,0.1,0.9-0.2,0.9c-0.4,0-0.8-0.8-0.8-0.8c0.1,0.5,0.2,0.9-0.2,1
		c-0.4,0.2-0.4-0.2-0.4-0.2c-0.1,0.2,0,0.6,0.4,0.7s1.2-0.2,1.2,0.7c0,0.9-1.5,0.8-1.5,0.8c4.9,0.5,4,0.7,4,0.7
		c-4.7-0.8-5.7-0.5-5.7-0.5c-5.6,0.5-6.2,1.8-6.4,2.2L27.2,20.4L27.2,20.4L27.2,20.4L27.2,20.4L27.2,20.4L27.2,20.4z M22.5,27.3
		L22.5,27.3c0.1,0,0.1,0,0.1,0h0.1h0.1h0.1H23h0.1h0.1h0.1c0,0,0,0,0.1,0c0,0,0,0,0.1-0.1c0,0,0,0,0.1-0.1H24h0.2v-0.2v-0.2v-0.1
		v-0.1c0-0.2,0-0.3,0-0.5c0-0.3,0-0.6,0.1-0.9l0.1-0.9l0.1-0.9v-0.1L24.2,23l-0.1-0.2v-0.1v-0.1L24,22.5l-0.1-0.1l0,0l0.2,0.1h0.8
		l0.1-0.1l0.9-0.2l0.6-0.2l0.7-0.4l-3.3,0.6l-0.1-0.1L23.7,22v-0.1l0,0c0,0,0,0,0.1,0c0,0,0,0,0.1,0H24l0,0l0,0l0,0l0,0l0,0l0,0l0,0
		l0,0h0.1h0.1l0.2-0.1c0.1-0.1,0.3-0.1,0.4-0.2l0.4-0.2l1.7-0.8l0.2-0.1v-0.1c0.1,0,0.1-0.1,0.1-0.1c1.2-2,7.3-2,7.3-2l0.1,0.7
		l0.5-0.1l0.3,0.3l0.8-0.3l0.4,0.4l0.7-0.3l0.6,0.4l0.2-0.2l0.6,0.4l0.2-0.1l0.8,0.7l0.2-0.1l0.7,0.6l-0.1,0.1l0.1,0.1l0.1,0.1
		l-0.1,0.2l-0.5-0.5l0.1,0.3l-0.7-0.7v0.4c0,0-0.6,0.1-0.8,0.1s-0.4-0.3-0.4-0.3v0.2c0,0-0.8,0.1-1,0.1s-0.4-0.3-0.4-0.3
		c0,0.4-0.2,0.4-0.2,0.4s-0.4,0-0.7,0c-0.2,0-0.5-0.3-0.5-0.3c0.1,0.4-0.2,0.3-0.2,0.3V21l0.1,4.6h0.4l-0.1-3.7l0.2-0.2h0.5v-0.3
		l-0.2-0.1l0.5-0.1v0.2l0.2,4.1h0.4l-0.4-3.6l0.2-0.3h0.6v-0.2H38l0.2,4h0.4l-0.4-3.7l0.2-0.2h0.5v-0.3h0.2l0.3,4.1h0.7v0.6h-0.9
		l-0.4-0.4l-0.1,0.3h-0.8l-0.5-0.4v0.4h-0.8l-0.4-0.4l-0.1,0.4H35v0.7h0.2v0.2l0.5,0.1v0.3l0.1,7.5L32,34.9v-3.2h-2.6
		c0.1-1.8,2.2-1.3,2.2-1.3c-2.1-1-2.6,1-2.6,1V35c0,0-5.7,0.6-6.5,0.7v-0.1l0.3-0.1l0,0l0,0l0,0l0,0l0,0l0,0l0,0l0,0l0,0l0,0
		c0,0,0,0,0-0.1c0,0,0,0,0.1-0.1l0,0l0,0H23v-0.1V35c0-0.1,0-0.1,0-0.2v-0.4v-0.8V32v-3.1l0.3-0.6l2.9-0.4l0.3-0.7l-4.1,0.6v-0.1
		L22.5,27.3L22.5,27.3z"/>
	<path d="M57,32c-0.2,0.1-0.4,0.2-0.6,0.3c-0.2,0.1-0.5,0.3-0.8,0.5c-0.1,0.1-0.3,0.2-0.5,0.3s-0.3,0.2-0.5,0.3
		c-0.4,0.2-0.7,0.4-1.2,0.6c-0.3,0.2-0.6,0.3-0.9,0.5c-0.1,0.1-0.3,0.1-0.4,0.2c-0.2,0.1-0.5,0.2-0.7,0.4c-0.2,0.1-0.5,0.2-0.8,0.4
		c-0.5,0.2-1,0.4-1.5,0.7c-0.6,0.3-1.2,0.5-1.9,0.8c-1.2,0.5-2.5,1-3.8,1.4s-2.6,0.9-4,1.2h-0.1c-0.1,0-0.3,0.1-0.4,0.1
		c-0.2,0-0.3,0.1-0.5,0.1c-0.1,0-0.2,0-0.3,0.1c0,0,0,0-0.1,0s-0.1,0-0.2,0c-0.2,0.1-0.5,0.1-0.7,0.2l0,0c-0.1,0-0.1,0-0.2,0.1h-0.1
		c-0.2,0-0.4,0.1-0.6,0.1c-0.1,0-0.2,0-0.3,0.1h-0.1c-0.1,0-0.2,0.1-0.3,0.1c-0.2,0-0.3,0.1-0.5,0.1c-0.6,0.1-1.2,0.3-1.9,0.4
		c-0.4,0.1-0.9,0.2-1.3,0.2c-0.3,0.1-0.6,0.1-0.9,0.2c-0.1,0-0.2,0-0.3,0c-0.6,0.1-1.3,0.2-1.9,0.3c-0.8,0.1-1.6,0.2-2.4,0.3
		c-0.1,0-0.2,0-0.3,0c-1.3,0.1-2.5,0.3-3.6,0.4h-0.1c-0.9,0.1-1.7,0.1-2.6,0.2c-0.4,0-0.8,0-1.1,0.1c-1.1,0.1-2.1,0.1-3,0.2
		c-0.1,0-0.1,0-0.2,0c-0.9,0-1.8,0.1-2.4,0.1c-0.3,0-0.6,0-0.9,0c-0.3,0-0.5,0-0.7,0s-0.3,0-0.4,0c-0.1,0-0.1,0-0.1,0s0,0,0.1,0
		s0.2,0.1,0.4,0.1c0.2,0.1,0.4,0.1,0.6,0.2c0.3,0.1,0.5,0.2,0.9,0.3c0.7,0.2,1.5,0.4,2.4,0.6c0.6,0.1,1.3,0.3,2.1,0.4
		c0.4,0.1,0.7,0.1,1.1,0.2c1.2,0.2,2.5,0.3,3.8,0.4c0.1,0,0.2,0,0.3,0c1.3,0.1,2.6,0.1,4,0.1c1.5,0,3-0.1,4.6-0.3
		c1.6-0.2,3.1-0.4,4.7-0.8c1.6-0.3,3.1-0.8,4.6-1.2c1.5-0.5,3-1.1,4.3-1.7c1-0.4,1.9-0.9,2.8-1.4c0.4-0.2,0.7-0.4,1-0.6
		c1-0.6,2-1.3,2.8-1.9c0.1-0.1,0.2-0.2,0.4-0.3c1-0.7,1.8-1.5,2.5-2.1c0.2-0.2,0.3-0.3,0.5-0.5s0.3-0.3,0.5-0.5
		c0.3-0.3,0.6-0.6,0.8-0.8c0.2-0.3,0.4-0.5,0.6-0.7c0.2-0.2,0.3-0.4,0.4-0.5c0.2-0.3,0.3-0.5,0.3-0.5S57.3,31.8,57,32z"/>
</g>
<path d="M64.3,21.2c-0.7,0-1.3,0.3-1.7,0.9S62,23.5,62,24.6c0,2.2,0.8,3.3,2.5,3.3c0.5,0,1-0.1,1.5-0.2s1-0.3,1.4-0.5v2.6
	c-1,0.4-2,0.6-3.3,0.6c-1.7,0-3.1-0.5-4-1.5s-1.4-2.5-1.4-4.4c0-1.2,0.2-2.2,0.7-3.1c0.4-0.9,1.1-1.6,1.9-2.1c0.8-0.5,1.8-0.7,3-0.7
	c1.2,0,2.4,0.3,3.6,0.8l-1,2.4c-0.4-0.2-0.8-0.4-1.3-0.5C65.2,21.2,64.8,21.2,64.3,21.2z"/>
<path d="M69.2,30.3V18.8h3.1v11.5H69.2z"/>
<path d="M79.5,30.3h-3.1v-9h-2.8v-2.5h8.7v2.5h-2.8C79.5,21.3,79.5,30.3,79.5,30.3z"/>
<path d="M87.6,23.1l2-4.3H93l-3.8,7v4.5h-3.1v-4.4l-3.8-7.1h3.4L87.6,23.1z"/>
<path d="M99.2,24.3h3.9v5.6c-0.6,0.2-1.2,0.3-1.9,0.4c-0.6,0.1-1.4,0.1-2.2,0.1c-1.7,0-3.1-0.5-4.1-1.6c-1-1-1.5-2.5-1.5-4.4
	c0-1.2,0.2-2.2,0.7-3.1s1.2-1.6,2.1-2.1s2-0.7,3.2-0.7s2.4,0.2,3.4,0.7l-0.5,1.2c-1-0.4-2-0.7-3-0.7c-1.4,0-2.5,0.4-3.3,1.3
	s-1.2,2-1.2,3.5c0,1.6,0.4,2.7,1.1,3.5c0.8,0.8,1.9,1.2,3.3,1.2c0.8,0,1.6-0.1,2.3-0.3v-3.4h-2.3V24.3z"/>
<path d="M114.2,18.8v7.4c0,1.3-0.4,2.3-1.2,3.1c-0.8,0.8-1.9,1.1-3.3,1.1s-2.5-0.4-3.2-1.1c-0.8-0.8-1.1-1.8-1.1-3.1v-7.4h1.3v7.5
	c0,1,0.3,1.7,0.8,2.2s1.3,0.8,2.3,0.8s1.7-0.3,2.2-0.8s0.8-1.3,0.8-2.2v-7.5H114.2z"/>
<path d="M123.2,30.3h-6.4V18.8h6.4V20h-5.1v3.7h4.8v1.2h-4.8v4.2h5.1V30.3z"/>
<path d="M131.9,27.2c0,1-0.4,1.8-1.1,2.4c-0.7,0.6-1.7,0.8-3,0.8c-1.4,0-2.4-0.2-3.1-0.5v-1.3c0.5,0.2,1,0.4,1.5,0.5
	c0.6,0.1,1.1,0.2,1.7,0.2c0.9,0,1.6-0.2,2-0.5c0.5-0.3,0.7-0.8,0.7-1.4c0-0.4-0.1-0.7-0.2-1c-0.2-0.3-0.4-0.5-0.8-0.7
	c-0.4-0.2-0.9-0.5-1.7-0.7c-1.1-0.4-1.8-0.8-2.3-1.4c-0.5-0.5-0.7-1.2-0.7-2.1s0.3-1.6,1-2.1s1.5-0.8,2.6-0.8s2.2,0.2,3.2,0.6
	l-0.4,1.2c-0.9-0.4-1.9-0.6-2.8-0.6c-0.7,0-1.3,0.2-1.7,0.5c-0.4,0.3-0.6,0.7-0.6,1.3c0,0.4,0.1,0.7,0.2,1s0.4,0.5,0.7,0.7
	s0.9,0.4,1.6,0.7c1.2,0.4,2,0.9,2.5,1.4C131.6,25.8,131.9,26.5,131.9,27.2z"/>
<path d="M137.3,30.3H136V20h-3.6v-1.2h8.6V20h-3.6L137.3,30.3L137.3,30.3z"/>
<path d="M151.1,30.3h-1.3v-5.4h-6.1v5.4h-1.3V18.8h1.3v4.9h6.1v-4.9h1.3V30.3z"/>
<path d="M163.8,24.5c0,1.8-0.5,3.3-1.4,4.3c-0.9,1.1-2.2,1.6-3.9,1.6s-3-0.5-3.9-1.6c-0.9-1-1.4-2.5-1.4-4.4s0.5-3.3,1.4-4.4
	c0.9-1,2.2-1.5,3.9-1.5s2.9,0.5,3.9,1.6C163.3,21.2,163.8,22.7,163.8,24.5z M154.6,24.5c0,1.6,0.3,2.7,1,3.5s1.6,1.2,2.9,1.2
	c1.3,0,2.2-0.4,2.9-1.2c0.7-0.8,1-2,1-3.5s-0.3-2.7-1-3.5c-0.6-0.8-1.6-1.2-2.9-1.2c-1.3,0-2.2,0.4-2.9,1.2
	C155,21.8,154.6,23,154.6,24.5z"/>
<path d="M174.6,18.8v7.4c0,1.3-0.4,2.3-1.2,3.1c-0.8,0.8-1.9,1.1-3.3,1.1c-1.4,0-2.5-0.4-3.2-1.1c-0.8-0.8-1.1-1.8-1.1-3.1v-7.4h1.3
	v7.5c0,1,0.3,1.7,0.8,2.2s1.3,0.8,2.3,0.8s1.7-0.3,2.2-0.8s0.8-1.3,0.8-2.2v-7.5H174.6z"/>
<path d="M183.8,27.2c0,1-0.4,1.8-1.1,2.4c-0.7,0.6-1.7,0.8-3,0.8c-1.4,0-2.4-0.2-3.1-0.5v-1.3c0.5,0.2,1,0.4,1.5,0.5
	c0.6,0.1,1.1,0.2,1.7,0.2c0.9,0,1.6-0.2,2-0.5c0.5-0.3,0.7-0.8,0.7-1.4c0-0.4-0.1-0.7-0.2-1c-0.2-0.3-0.4-0.5-0.8-0.7
	c-0.4-0.2-0.9-0.5-1.7-0.7c-1.1-0.4-1.8-0.8-2.3-1.4c-0.5-0.5-0.7-1.2-0.7-2.1s0.3-1.6,1-2.1s1.5-0.8,2.6-0.8s2.2,0.2,3.2,0.6
	l-0.4,1.2c-0.9-0.4-1.9-0.6-2.8-0.6c-0.7,0-1.3,0.2-1.7,0.5s-0.6,0.7-0.6,1.3c0,0.4,0.1,0.7,0.2,1c0.1,0.3,0.4,0.5,0.7,0.7
	s0.9,0.4,1.6,0.7c1.2,0.4,2,0.9,2.5,1.4C183.5,25.8,183.8,26.5,183.8,27.2z"/>
<path d="M192.1,30.3h-6.4V18.8h6.4V20H187v3.7h4.8v1.2H187v4.2h5.1V30.3z"/>
</svg>
