<?xml version="1.0" encoding="UTF-8"?>
<svg id="Layer_1" data-name="Layer 1" xmlns="http://www.w3.org/2000/svg" viewBox="0 0 951.54 108.75">
  <defs>
    <style>
      .cls-1 {
        fill: none;
      }

      .cls-1, .cls-2 {
        stroke-width: 0px;
      }

      .cls-2 {
        fill: #fff;
      }
    </style>
  </defs>
  <g>
    <path class="cls-1" d="M65.07,19.95c.26.16.33.39.54.35.21-.03.53-.25.47-.51-.07-.05-.17-.09-.33-.09-.12,0-.26.03-.42.08l-.16.06-.02-.14c-.12.06-.22.15-.09.24Z"/>
    <path class="cls-1" d="M66.09,20.2c.05.13.3.43.44.29.11-.11.2-.32.08-.47-.08-.02-.18-.04-.3-.05h-.07c-.1.05-.17.14-.14.22Z"/>
    <path class="cls-1" d="M79.1,77.8l-.35-.13-.04-18.29s-2.48-.39-2.48,1-.04,17.69-.04,17.69l-.74-.13-.22-18.34-1.57-.22-.31,1.05-.83.17.09,17.47-.09,1.26h.39v.26h2.4v-.48h.96v.48l3.18-.25.04-.84-.44-.13.04-.57Z"/>
    <path class="cls-1" d="M64.58,15.61c.12-.05.61-.75-.06-.81,0,0-.21.07-.15.26.06.19.09.6.21.55Z"/>
    <path class="cls-1" d="M63.48,14.67c-.01-.06-.58-.03-.53.47.05.5,0,.65,0,.65,0,0,.72-.22.53-1.12Z"/>
    <path class="cls-1" d="M64.24,20.4c.29,0,.47-.25.53-.54.08-.38-.24-.68-.53-.68s-.69.21-.54.68c.09.28.24.54.54.54Z"/>
    <path class="cls-1" d="M62.41,19.67c.05.95.73.84.75.8.02-.04,0-1.2,0-1.2-.79-.14-.75.4-.75.4Z"/>
    <polygon class="cls-1" points="72.09 78.24 71.66 58.63 69.17 59.07 69.13 78.19 68.79 79.32 69.39 79.32 69.39 79.69 71.52 79.58 71.52 79.32 72.53 79.32 72.13 79.28 72.09 78.24"/>
    <path class="cls-1" d="M58.24,80.5v9.63c1.22-.2,2.45-.42,3.67-.64,1.69-.31,3.38-.63,5.07-.98.44-.09.87-.18,1.31-.27l.11-8.3-10.15.56Z"/>
    <path class="cls-1" d="M32.54,82.82v.07s-.12,10.3-.12,10.3c3.18-.24,6.5-.54,9.91-.91.3-.03.59-.06.89-.09,2.17-.24,4.38-.51,6.61-.8v-10.1l-17.29,1.54Z"/>
    <path class="cls-1" d="M79.05,79.91l-2.17.16-.09.83-.57.26.08,5.21c.45-.11.89-.23,1.34-.35.38-.1.77-.2,1.15-.3.09-.02.18-.05.27-.07l-.05-5.45.04-.29Z"/>
    <path class="cls-1" d="M70,79.98l-.09.83-.7.13.02,7.1c.09-.02.19-.04.28-.06.23-.05.47-.1.7-.15.54-.12,1.09-.25,1.63-.37l-.06-7.47h-1.79Z"/>
    <path class="cls-1" d="M73.27,79.98l.13.48-.57.13s-.04,3.19-.07,6.65c.04-.01.09-.02.13-.03.65-.15,1.3-.32,1.95-.48.18-.04.36-.09.53-.13l-.15-6.71-1.96.09Z"/>
    <path class="cls-1" d="M62.32,9.08c-.53.15-.76.69-.76.69.22-.06.22-.06.61-.13.39-.07.68-.72.15-.56Z"/>
    <path class="cls-1" d="M43.71,40.61s0,.03.01.04c0,.01.02.03.02.04l.03.08c.33-.97,2.15-4.73,17.29-5.97,0,0,2.83-.57,15.55,1.48,0,0,2.7-.61-10.76-1.87,0,0,4.01.17,3.96-2.18-.04-2.35-2.18-1.57-3.22-1.92-1.05-.35-1.39-1.26-1.18-1.87,0,0,.17,1.09,1.48.83,1.31-.26,1.05-1.35.65-2.74,0,0,.96,2.31,2.18,2.18.96-.1.95-1.53.67-2.54.46,1.12,1.38,3.25,1.86,3.41.65.22,1.57.09-.48-3.14,0,0,1.61,1.74,2.31,2.53.7.78,1.52,1.7,2.22,1.22,0,0,.45.94,1.17.7,0,0-.01-.01-.02-.02-.22-.29-.44-.58-.67-.86l-.35-.42c-.12-.14-.24-.27-.36-.41l-.37-.4-.38-.39-.38-.39-.4-.37-.4-.37c-.13-.12-.28-.23-.42-.35l-.42-.35-.21-.17-.22-.16c-.29-.21-.58-.43-.88-.64l-.91-.6c-.08-.05-.15-.1-.23-.15l-.24-.14-.47-.27-.47-.27c-.16-.09-.32-.16-.49-.25l-.98-.48-.68-.34.11-.13c-.36-.08-.8-.16-1.29-.24h-5.92c-.38.06-.77.14-1.16.24,0,0-2.39,1.19-2.7,1.35-.31.16-.62.33-.92.51-.3.18-.61.35-.9.54-.3.18-.59.38-.88.57l-.43.3c-.14.1-.28.21-.42.31-.14.1-.28.21-.41.32-.13.11-.27.21-.4.33l-.39.34-.37.36c-.13.12-.23.25-.35.37l-.17.19c-.05.05-.11.13-.16.2-.23.28-.44.55-.65.83-.21.28-.42.56-.62.85-.21.29-.41.58-.6.87-.2.29-.39.59-.59.89-.39.6-.76,1.2-1.14,1.81l-.29.46c-.1.16-.19.31-.32.48l-.05.07s-.02.03-.07.08c-.04.04-.08.08-.12.12l-.03.03h0s0,0,0,0c0,0,.02-.01.02-.01h0s0,.01,0,.01l.22.28-.56,2.4-.06.24-.18.13-.19.14-.19.15c-.13.1-.25.21-.37.31-.24.21-.47.44-.67.67-.2.23-.37.48-.47.71-.03.06-.04.11-.06.16v.07s-.02.04-.02.06c0,.02,0,.04,0,.06,0,.02,0,.03,0,.05Z"/>
    <path class="cls-1" d="M58.53,21.61c.16-.16.51-.18.52-.51,0-.24.09-.58.13-.73-.02.15-.03.5-.01.8.02.38.75-.13.78-.54.02-.41.26-.71.26-.71,0,0-.15.43-.01.73.15.32.66.2.65-.29-.01-.49.41-1.06.41-1.06-.4-.08-.66,0-.83.1-.07.16-.09.28-.09.28l-.03.17-.16-.06c-.15-.06-.29-.08-.42-.08-.32,0-.43.19-.44.2l-.04.06h-.08c-.4.04-.56.15-.63.24-.07.08-.05.17-.05.17l.02.15-.15.02c-.21.02-.36.11-.44.26-.22.39,0,1.16.16,1.59.12-.25.33-.66.44-.77Z"/>
    <path class="cls-1" d="M62.49,8c.41-.29.16-1.31.16-1.31,0,0-.64.44-.72.88-.08.45.14.72.55.42Z"/>
    <path class="cls-1" d="M59.04,16.01c-.06.08-.2.32-.11.73.25-.35.19-.59.11-.73Z"/>
    <path class="cls-1" d="M31.17,60.33l11.11-1.77-.81,1.86-7.9,1.22-.79,1.72-.1,8.57-.04,4.28v2.14s-.02,1.07-.02,1.07c0,.18,0,.34,0,.51v.49s0,.27,0,.27l-.16.13-.07.06-.08.07c-.05.05-.1.09-.15.14-.05.05-.09.1-.13.15-.02.02-.04.05-.06.07-.02.03-.04.05-.05.07l-.05.07-.04.07s-.02.04-.02.06c-.01.02-.01.04-.01.05,0,.02,0,.03,0,.04,0,0,0,.02,0,.03,0,0,0,.02,0,.02,0,0,0,.01,0,.02l.35.29.03.16c2.23-.25,17.62-1.95,17.62-1.87v-9.89s1.35-5.27,7.19-2.61c0,0-5.71-1.44-5.92,3.48h7.14v8.71l10.24-.7-.26-20.47-.09-.91-1.39-.22-.09-.48-.52-.13v-.87l2.92-.04.22-1.13,1,.96,2.26-.09.04-.96,1.26.96,2.13-.09.31-.83,1.05.96,2.48-.13-.04-1.66-2,.09-.78-11.28-.52-.04-.09.74-1.48.09-.65.57.96,10.06h-1.05l-.61-10.85-.7-.09-.04.52-1.52-.04-.57.74.96,9.84-1.09-.09-.61-11.19-.13-.61-1.39.22.65.35.04.87-1.26.04-.44.48.31,10.02-.96.09-.35-12.58-.09-.19s1,.04.65-.91c0,0,.61.92,1.26.91h1.83s.65-.04.52-1.18c0,0,.35.78.96.87.61.09,2.66-.28,2.66-.28v-.59s.61.74,1.09.78c.48.04,2.13-.2,2.13-.2v-1.07l1.83,1.84.52-.27,1.26,1.31.38-.42-.33-.31-.4-.38.34-.3-2.03-1.6-.57.31-2.22-1.83-.44.26-1.74-.96-.65.48-1.74-1.13-1.83.78-1.09-1.05-2.13.91-.74-.83-1.39.26-.26-1.92s-16.6-.09-19.95,5.31c0,0-.2.22-.36.34l.06.17-.45.21-4.51,2.11-1.13.52c-.38.17-.75.35-1.14.52l-.57.26c-.1.04-.22.09-.33.13l-.17.07-.08.03h0s0,0,0,0h-.04s0,.01,0,.01h-.06s-.08.03-.08.03c-.03,0-.05.01-.09.01l-.22.02c-.07,0-.12,0-.19,0-.06,0-.12,0-.18,0-.02,0-.03,0-.05,0v.19s.21.18.21.18l.15.14,9.06-1.5-1.8,1.1-1.74.52-2.38.46-.35.35h-2.27l-.49-.31v.12l.14.14.16.16v.23s0,.37,0,.37l.35.41.15.18-.02.23-.24,2.49-.23,2.49c-.07.83-.14,1.66-.2,2.49-.03.41-.05.83-.08,1.24l-.02.31v.3s-.03.6-.03.6l-.02.54h-.51s-1.13,0-1.13,0c-.05.05-.11.1-.16.14-.06.05-.12.09-.18.14-.06.05-.13.08-.19.13-.07.04-.14.07-.2.11-.07.04-.14.06-.22.09-.07.03-.15.05-.23.08-.08.03-.15.04-.24.05-.08.01-.16.03-.24.03-.08,0-.16.01-.24,0l-.24-.02c-.08,0-.16-.03-.24-.05-.02,0-.05-.01-.08-.02v.2s.26.5.26.5v.31Z"/>
    <path class="cls-1" d="M59.67,15.78c-.06-.15,0-.46,0-.46-.05-.03-.1-.04-.15-.04-.34.12-.42.6-.42.62v.02s0,.02.01.03c.24.33.62-.02.56-.18Z"/>
    <path class="cls-1" d="M62.1,14.68c-.12.04-.63.23-.73.49-.11.29.05.53.38.42.33-.11.25-.24.23-.45-.01-.19,0-.41.12-.46Z"/>
    <path class="cls-1" d="M60.48,12.09c.5,0,1.4-.16,1.85-.44.36-.22.7-1.12-.06-1.18-.75-.06-1.46.33-1.87.68-.41.35-.34,1.11-.34,1.11,0,0,.07-.17.42-.18Z"/>
    <path class="cls-1" d="M61.25,20.4c.14.27.62.37.87.09.25-.27.29-1.21-.21-1.22,0,0-.41,0-.58.2-.16.2-.22.66-.08.93Z"/>
    <path class="cls-1" d="M60.11,15.7c.35.14.47-.33.38-.45-.1-.12.04-.45.04-.45-.21,0-.37.13-.47.27,0,.03,0,.05,0,.06v.19s-.09-.02-.09-.02c-.04.17,0,.34.15.4Z"/>
    <path class="cls-2" d="M25.1,93.68c2.24-.13,4.58-.29,7-.47.1,0,.21-.02.31-.02l.12-10.3v-.07s17.29-1.54,17.29-1.54v10.1c1.71-.23,3.42-.47,5.15-.73.26-.04.51-.08.77-.12.83-.13,1.66-.26,2.49-.4v-9.63l10.15-.56-.11,8.3c.32-.07.64-.14.95-.21l-.02-7.1.7-.13.09-.83h1.79l.06,7.47c.11-.03.23-.05.34-.08.19-.04.38-.09.57-.13.04-3.46.07-6.65.07-6.65l.57-.13-.13-.48,1.96-.09.15,6.71c.06-.01.12-.03.18-.04.25-.06.5-.13.75-.19l-.08-5.21.57-.26.09-.83,2.17-.16-.04.29.05,5.45c3.77-1.02,7.46-2.12,10.99-3.31,3.62-1.21,7.09-2.5,10.35-3.82,1.78-.72,3.5-1.45,5.16-2.18,1.37-.6,2.7-1.21,3.97-1.8.7-.33,1.39-.66,2.06-.98.67-.33,1.31-.66,1.95-.97.36-.17.71-.35,1.06-.53,1.17-4.58,1.79-9.39,1.79-14.33C116.41,25.85,90.56,0,58.67,0S.94,25.85.94,57.73c0,13.83,4.87,26.53,12.98,36.47,2.45-.08,5.19-.2,8.14-.36.99-.05,2.01-.11,3.05-.17ZM79.46,79.34l-3.18.25v-.48h-.96v.48h-2.4v-.26h-1.39v.26l-2.13.11v-.37h-.6l.34-1.13.04-19.12,2.48-.44.44,19.6.04,1.05.39.04.09-1.26-.09-17.47.83-.17.31-1.05,1.57.22.22,18.34.74.13s.04-16.29.04-17.69,2.48-1,2.48-1l.04,18.29.35.13-.04.57.44.13-.04.84ZM66.22,19.97h.07c.12.02.22.03.3.05.13.15.03.36-.08.47-.14.14-.39-.16-.44-.29-.03-.09.03-.17.14-.23ZM65.15,19.71l.02.14.16-.06c.15-.06.29-.08.42-.08.16,0,.26.04.33.09.06.25-.26.47-.47.51-.21.04-.28-.19-.54-.35-.14-.09-.04-.18.09-.24ZM64.52,14.8c.67.06.18.76.06.81-.12.05-.15-.37-.21-.55-.06-.19.15-.26.15-.26ZM64.24,19.18c.29,0,.62.31.53.68-.06.29-.24.54-.53.54s-.44-.26-.54-.54c-.15-.47.24-.68.54-.68ZM62.95,15.14c-.05-.5.52-.53.53-.47.19.89-.53,1.12-.53,1.12,0,0,.05-.14,0-.65ZM63.16,19.27s.02,1.16,0,1.2c-.02.04-.71.15-.75-.8,0,0-.03-.54.75-.4ZM61.94,7.58c.08-.45.72-.88.72-.88,0,0,.25,1.01-.16,1.31-.41.29-.64.02-.55-.42ZM62.32,9.08c.53-.15.24.49-.15.56-.39.07-.39.07-.61.13,0,0,.23-.54.76-.69ZM60.4,11.17c.41-.35,1.12-.74,1.87-.68.75.06.42.95.06,1.18-.45.28-1.35.43-1.85.44-.35,0-.42.18-.42.18,0,0-.07-.75.34-1.11ZM61.98,15.14c.01.2.09.34-.23.45-.33.11-.48-.13-.38-.42.09-.26.61-.45.73-.49-.11.05-.13.28-.12.46ZM61.91,19.27c.51.01.46.95.21,1.22-.25.27-.73.18-.87-.09-.14-.27-.08-.73.08-.93.16-.2.58-.2.58-.2ZM59.96,15.3l.1.02v-.19s0-.03,0-.06c.1-.15.26-.26.47-.27,0,0-.14.33-.04.45.1.12-.03.59-.38.45-.15-.06-.19-.23-.15-.4ZM59.1,15.9s.08-.5.42-.62c.05,0,.1.01.15.04,0,0-.06.31,0,.46.06.15-.31.51-.56.18,0,0,0-.02-.02-.03v-.02ZM59.04,16.01c.08.13.14.38-.11.73-.08-.4.06-.65.11-.73ZM57.93,20.8c.08-.15.23-.23.44-.26l.15-.02-.02-.15s-.01-.08.05-.17c.07-.09.23-.2.63-.23h.08s.04-.07.04-.07c0,0,.12-.2.44-.2.12,0,.26.03.42.08l.16.06.03-.17s.02-.12.09-.28c.17-.1.43-.18.83-.1,0,0-.42.56-.41,1.06.01.49-.49.61-.65.29-.14-.29.01-.73.01-.73,0,0-.24.29-.26.71-.02.41-.75.92-.78.54-.02-.3,0-.65.01-.8-.04.15-.12.49-.13.73-.01.33-.36.34-.52.51-.11.11-.32.52-.44.77-.16-.42-.38-1.19-.16-1.59ZM43.71,40.44v-.07c.03-.05.05-.1.07-.16.09-.23.27-.48.47-.71.2-.23.43-.46.67-.67.12-.11.25-.21.37-.31l.19-.15.19-.14.18-.13.06-.24.56-2.4-.22-.28h0s0-.01,0-.01c0,0,0,0-.02.01h0s0,0,0,0l.03-.03s.08-.08.12-.12c.05-.05.05-.06.07-.08l.05-.07c.13-.17.22-.32.32-.48l.29-.46c.38-.61.76-1.21,1.14-1.81.19-.3.39-.59.59-.89.2-.29.4-.59.6-.87.2-.29.41-.57.62-.85.21-.27.42-.55.65-.83.05-.07.12-.15.16-.2l.17-.19c.11-.12.22-.25.35-.37l.37-.36.39-.34c.13-.12.27-.22.4-.33.13-.11.27-.22.41-.32.14-.1.28-.21.42-.31l.43-.3c.29-.19.58-.39.88-.57.3-.19.6-.36.9-.54.31-.17.61-.34.92-.51.31-.16,2.7-1.35,2.7-1.35.39-.1.78-.18,1.16-.24h5.92c.49.07.93.16,1.29.24l-.11.13.68.34.98.48c.16.08.33.16.49.25l.47.27.47.27.24.14c.08.05.15.1.23.15l.91.6c.3.21.59.43.88.64l.22.16.21.17.42.35c.14.12.28.23.42.35l.4.37.4.37.38.39.38.39.37.4c.12.14.25.27.36.41l.35.42c.24.27.45.57.67.86,0,0,.01.01.02.02-.72.24-1.17-.7-1.17-.7-.7.48-1.52-.44-2.22-1.22-.7-.78-2.31-2.53-2.31-2.53,2.05,3.22,1.13,3.35.48,3.14-.48-.16-1.4-2.28-1.86-3.41.28,1.01.3,2.43-.67,2.54-1.22.13-2.18-2.18-2.18-2.18.39,1.39.65,2.48-.65,2.74-1.31.26-1.48-.83-1.48-.83-.22.61.13,1.52,1.18,1.87,1.05.35,3.18-.44,3.22,1.92.04,2.35-3.96,2.18-3.96,2.18,13.46,1.26,10.76,1.87,10.76,1.87-12.72-2.05-15.55-1.48-15.55-1.48-15.15,1.24-16.96,5-17.29,5.97l-.03-.08s-.01-.03-.02-.04c0-.02,0-.03-.01-.04,0-.02,0-.03,0-.05,0-.02,0-.04,0-.06,0-.02,0-.04,0-.06ZM30.91,59.32s.05.01.08.02c.08.02.15.04.24.05l.24.02c.08,0,.16,0,.24,0,.08,0,.16-.02.24-.03.08-.01.16-.03.24-.05.08-.02.16-.04.23-.08.07-.03.15-.06.22-.09.07-.04.14-.07.2-.11.06-.04.13-.08.19-.13.06-.05.12-.09.18-.14.06-.04.11-.09.16-.14h1.13s.51,0,.51,0l.02-.54.02-.6v-.3s.03-.31.03-.31c.03-.41.05-.82.08-1.24.06-.83.13-1.66.2-2.49l.23-2.49.24-2.49.02-.23-.15-.18-.35-.41v-.37s0-.23,0-.23l-.16-.16-.14-.14v-.12l.49.31h2.27l.35-.35,2.38-.46,1.74-.52,1.8-1.1-9.06,1.5-.15-.14-.21-.18v-.19s.03,0,.05,0c.06,0,.12,0,.18,0,.06,0,.11,0,.19,0l.22-.02s.06,0,.09-.01h.08s.06-.03.06-.03h0s.04-.01.04-.01h0s0,0,0,0l.08-.03.17-.07c.11-.04.23-.09.33-.13l.57-.26c.38-.17.76-.34,1.14-.52l1.13-.52,4.51-2.11.45-.21-.06-.17c.16-.12.36-.34.36-.34,3.35-5.4,19.95-5.31,19.95-5.31l.26,1.92,1.39-.26.74.83,2.13-.91,1.09,1.05,1.83-.78,1.74,1.13.65-.48,1.74.96.44-.26,2.22,1.83.57-.31,2.03,1.6-.34.3.4.38.33.31-.38.42-1.26-1.31-.52.27-1.83-1.84v1.07s-1.66.24-2.13.2c-.48-.04-1.09-.78-1.09-.78v.59s-2.05.37-2.66.28c-.61-.09-.96-.87-.96-.87.13,1.13-.52,1.18-.52,1.18h-1.83c-.65,0-1.26-.91-1.26-.91.35.96-.65.91-.65.91l.09.19.35,12.58.96-.09-.31-10.02.44-.48,1.26-.04-.04-.87-.65-.35,1.39-.22.13.61.61,11.19,1.09.09-.96-9.84.57-.74,1.52.04.04-.52.7.09.61,10.85h1.05l-.96-10.06.65-.57,1.48-.09.09-.74.52.04.78,11.28,2-.09.04,1.66-2.48.13-1.05-.96-.31.83-2.13.09-1.26-.96-.04.96-2.26.09-1-.96-.22,1.13-2.92.04v.87l.52.13.09.48,1.39.22.09.91.26,20.47-10.24.7v-8.71h-7.14c.22-4.92,5.92-3.48,5.92-3.48-5.84-2.66-7.19,2.61-7.19,2.61v9.89c0-.08-15.39,1.62-17.62,1.87l-.03-.16-.35-.29s0-.01,0-.02c-.01,0,0-.02,0-.02,0,0,0-.02,0-.03,0,0,0-.02,0-.04,0-.01,0-.03.01-.05,0-.02,0-.04.02-.06l.04-.07.05-.07s.04-.05.05-.07c.02-.03.04-.05.06-.07.04-.05.09-.1.13-.15.05-.05.1-.1.15-.14l.08-.07.07-.06.16-.13v-.27s0-.49,0-.49c0-.16,0-.32,0-.51v-1.07s.02-2.14.02-2.14l.04-4.28.1-8.57.79-1.72,7.9-1.22.81-1.86-11.11,1.77v-.31s-.26-.5-.26-.5v-.2Z"/>
    <path class="cls-2" d="M125.56,71.94c-.43.25-.96.57-1.59.94-.63.35-1.35.77-2.15,1.24-.4.24-.83.47-1.27.72-.44.25-.91.51-1.39.79-.97.54-2.02,1.11-3.14,1.72-.82.41-1.65.88-2.53,1.33-.35.18-.7.36-1.06.53-.64.31-1.28.65-1.95.98-.67.32-1.35.66-2.05.99-1.27.61-2.59,1.22-3.96,1.83-1.65.74-3.36,1.49-5.14,2.22-3.25,1.35-6.71,2.66-10.32,3.9-3.53,1.21-7.2,2.35-10.96,3.4-.09.03-.18.05-.27.08-.38.11-.77.21-1.15.31-.44.12-.89.24-1.33.36-.25.07-.5.13-.75.2-.06.02-.12.03-.18.04-.18.05-.36.09-.53.13-.65.17-1.29.33-1.94.49-.04.01-.09.02-.13.03-.19.05-.38.09-.57.14-.11.03-.23.05-.34.08-.54.13-1.08.26-1.63.38-.23.05-.47.11-.7.16-.09.02-.19.04-.28.06-.32.07-.63.14-.95.21-.43.1-.87.19-1.31.28-1.68.36-3.37.7-5.06,1.02-1.22.23-2.44.46-3.66.67-.83.15-1.66.29-2.49.42-.25.04-.51.09-.77.13-1.72.27-3.44.53-5.14.77-2.23.31-4.43.6-6.61.86-.3.04-.59.07-.89.1-3.41.39-6.72.72-9.9.99-.1,0-.21.02-.31.03-2.42.2-4.76.38-7,.53-1.04.07-2.05.13-3.05.19-2.95.18-5.68.32-8.13.42-.14,0-.29.01-.43.02-2.57.1-4.82.19-6.67.26-.93.03-1.76.06-2.48.09-.73.03-1.35.05-1.85.07-.5.02-.89.05-1.15.06-.27.02-.4.04-.4.04,0,0,.13.03.37.12.24.08.61.21,1.08.38.47.17,1.06.37,1.76.59.69.23,1.5.48,2.4.74,1.8.53,4.01,1.12,6.57,1.69,1.74.38,3.63.77,5.67,1.13.96.17,1.96.33,2.98.48,3.19.48,6.68.87,10.37,1.12.24.02.48.03.72.05,3.49.22,7.16.31,10.96.25,4.06-.07,8.25-.33,12.51-.81,4.25-.48,8.55-1.17,12.81-2.07,4.26-.91,8.48-2.05,12.57-3.39,4.09-1.34,8.03-2.89,11.76-4.6,2.66-1.22,5.21-2.52,7.62-3.88.96-.54,1.9-1.09,2.81-1.64,2.81-1.7,5.39-3.46,7.73-5.21.33-.25.65-.49.97-.74,2.6-1.97,4.82-3.96,6.76-5.75.47-.46.93-.91,1.37-1.34.44-.43.86-.84,1.25-1.26.78-.83,1.51-1.57,2.13-2.29.62-.71,1.17-1.35,1.64-1.9.47-.56.85-1.06,1.16-1.46.62-.8.94-1.23.94-1.23,0,0-.47.26-1.34.77Z"/>
  </g>
  <path class="cls-2" d="M184.54,34.2c-4.44,0-7.9,1.82-10.38,5.45-2.49,3.63-3.73,8.64-3.73,15.03,0,13.28,5.05,19.92,15.15,19.92,3.05,0,6.01-.42,8.87-1.27,2.86-.85,5.74-1.87,8.64-3.07v15.76c-5.76,2.55-12.27,3.82-19.54,3.82-10.41,0-18.4-3.02-23.95-9.06-5.55-6.04-8.33-14.77-8.33-26.19,0-7.14,1.35-13.42,4.03-18.83,2.69-5.41,6.56-9.57,11.61-12.48,5.05-2.91,10.99-4.36,17.82-4.36,7.46,0,14.58,1.62,21.38,4.86l-5.71,14.68c-2.55-1.2-5.1-2.2-7.64-3.02-2.55-.82-5.29-1.23-8.21-1.23Z"/>
  <path class="cls-2" d="M214.12,88.87V19.88h18.74v69h-18.74Z"/>
  <path class="cls-2" d="M275.79,88.87h-18.64v-53.75h-16.85v-15.24h52.29v15.24h-16.8v53.75Z"/>
  <path class="cls-2" d="M324.67,45.46l11.89-25.58h20.2l-22.7,42.05v26.95h-18.78v-26.38l-22.7-42.62h20.29l11.8,25.58Z"/>
  <path class="cls-2" d="M394.18,52.75h23.46v33.56c-3.65,1.16-7.36,2.05-11.14,2.64-3.78.6-8.15.9-13.12.9-10.45,0-18.58-3.11-24.4-9.32-5.82-6.21-8.73-14.92-8.73-26.12,0-7.17,1.44-13.46,4.32-18.85,2.88-5.39,7.02-9.52,12.44-12.36,5.41-2.85,11.75-4.27,19.02-4.27s14.22,1.35,20.58,4.06l-3.11,7.08c-6.23-2.64-12.22-3.96-17.98-3.96-8.4,0-14.96,2.5-19.68,7.5-4.72,5-7.08,11.94-7.08,20.81,0,9.31,2.27,16.38,6.82,21.19,4.55,4.81,11.22,7.22,20.03,7.22,4.78,0,9.45-.55,14.02-1.65v-21.24h-15.43v-7.17Z"/>
  <path class="cls-2" d="M483.88,19.4v44.65c0,7.86-2.38,14.05-7.13,18.55-4.75,4.5-11.28,6.75-19.58,6.75s-14.73-2.27-19.28-6.8c-4.55-4.53-6.82-10.76-6.82-18.69V19.4h8.02v45.02c0,5.76,1.57,10.18,4.72,13.26,3.15,3.08,7.77,4.62,13.87,4.62s10.3-1.55,13.45-4.65c3.15-3.1,4.72-7.54,4.72-13.33V19.4h8.02Z"/>
  <path class="cls-2" d="M538.19,88.87h-38.46V19.88h38.46v7.13h-30.44v22.23h28.6v7.08h-28.6v25.39h30.44v7.17Z"/>
  <path class="cls-2" d="M590,70.54c0,6.07-2.2,10.81-6.61,14.2-4.41,3.4-10.38,5.1-17.93,5.1-8.18,0-14.47-1.05-18.88-3.16v-7.74c2.83,1.2,5.91,2.14,9.25,2.83,3.33.69,6.64,1.04,9.91,1.04,5.35,0,9.37-1.01,12.08-3.04,2.71-2.03,4.06-4.85,4.06-8.47,0-2.39-.48-4.35-1.44-5.88-.96-1.53-2.56-2.93-4.81-4.22-2.25-1.29-5.67-2.75-10.27-4.39-6.42-2.3-11-5.02-13.76-8.16-2.75-3.15-4.13-7.25-4.13-12.32,0-5.32,2-9.55,5.99-12.7,4-3.15,9.28-4.72,15.86-4.72s13.17,1.26,18.93,3.78l-2.5,6.98c-5.7-2.39-11.23-3.59-16.61-3.59-4.25,0-7.57.91-9.96,2.74-2.39,1.83-3.59,4.36-3.59,7.6,0,2.39.44,4.35,1.32,5.88.88,1.53,2.37,2.93,4.46,4.2,2.09,1.27,5.29,2.68,9.6,4.22,7.24,2.58,12.22,5.35,14.94,8.31,2.72,2.96,4.08,6.79,4.08,11.52Z"/>
  <path class="cls-2" d="M622.93,88.87h-8.02V27h-21.85v-7.13h51.72v7.13h-21.85v61.87Z"/>
  <path class="cls-2" d="M705.14,88.87h-8.02v-32.47h-36.34v32.47h-8.02V19.88h8.02v29.35h36.34v-29.35h8.02v69Z"/>
  <path class="cls-2" d="M781.53,54.35c0,11.04-2.79,19.73-8.38,26.05-5.58,6.32-13.35,9.49-23.29,9.49s-18-3.11-23.53-9.32c-5.52-6.21-8.28-14.98-8.28-26.31s2.77-19.94,8.31-26.12c5.54-6.18,13.4-9.27,23.6-9.27s17.65,3.15,23.22,9.44c5.57,6.29,8.35,14.98,8.35,26.05ZM726.55,54.35c0,9.34,1.99,16.43,5.97,21.26,3.98,4.83,9.76,7.24,17.34,7.24s13.42-2.41,17.32-7.22c3.9-4.81,5.85-11.91,5.85-21.28s-1.94-16.32-5.83-21.12c-3.89-4.8-9.64-7.2-17.25-7.2s-13.46,2.41-17.44,7.24c-3.98,4.83-5.97,11.85-5.97,21.07Z"/>
  <path class="cls-2" d="M846.6,19.4v44.65c0,7.86-2.38,14.05-7.13,18.55-4.75,4.5-11.28,6.75-19.58,6.75s-14.73-2.27-19.28-6.8c-4.55-4.53-6.82-10.76-6.82-18.69V19.4h8.02v45.02c0,5.76,1.57,10.18,4.72,13.26,3.15,3.08,7.77,4.62,13.87,4.62s10.3-1.55,13.45-4.65c3.15-3.1,4.72-7.54,4.72-13.33V19.4h8.02Z"/>
  <path class="cls-2" d="M901.38,70.54c0,6.07-2.2,10.81-6.61,14.2-4.41,3.4-10.38,5.1-17.93,5.1-8.18,0-14.47-1.05-18.88-3.16v-7.74c2.83,1.2,5.91,2.14,9.25,2.83,3.34.69,6.64,1.04,9.91,1.04,5.35,0,9.37-1.01,12.08-3.04,2.71-2.03,4.06-4.85,4.06-8.47,0-2.39-.48-4.35-1.44-5.88-.96-1.53-2.57-2.93-4.81-4.22-2.25-1.29-5.67-2.75-10.26-4.39-6.42-2.3-11-5.02-13.76-8.16-2.75-3.15-4.13-7.25-4.13-12.32,0-5.32,2-9.55,5.99-12.7,4-3.15,9.28-4.72,15.86-4.72s13.17,1.26,18.92,3.78l-2.5,6.98c-5.7-2.39-11.23-3.59-16.61-3.59-4.25,0-7.57.91-9.96,2.74-2.39,1.83-3.59,4.36-3.59,7.6,0,2.39.44,4.35,1.32,5.88.88,1.53,2.37,2.93,4.46,4.2,2.09,1.27,5.29,2.68,9.61,4.22,7.24,2.58,12.21,5.35,14.94,8.31,2.72,2.96,4.08,6.79,4.08,11.52Z"/>
  <path class="cls-2" d="M951.54,88.87h-38.46V19.88h38.46v7.13h-30.44v22.23h28.6v7.08h-28.6v25.39h30.44v7.17Z"/>
</svg>