<?xml version="1.0" encoding="utf-8"?>
<!-- Generator: Adobe Illustrator 28.2.0, SVG Export Plug-In . SVG Version: 6.00 Build 0)  -->
<svg version="1.1" id="Layer_1" xmlns="http://www.w3.org/2000/svg" xmlns:xlink="http://www.w3.org/1999/xlink" x="0px" y="0px"
	 viewBox="0 0 138 29" style="enable-background:new 0 0 138 29;" xml:space="preserve">
<style type="text/css">
	.st0{fill:none;}
	.st1{fill:#FFFFFF;}
</style>
<g>
	<g>
		<path class="st0" d="M17.5,6.2c0.1,0,0.1,0.1,0.1,0.1c0.1,0,0.1-0.1,0.1-0.1s0,0-0.1,0C17.7,6.2,17.6,6.2,17.5,6.2L17.5,6.2
			L17.5,6.2L17.5,6.2z"/>
		<path class="st0" d="M17.8,6.3l0.1,0.1V6.3C17.9,6.2,17.8,6.2,17.8,6.3L17.8,6.3C17.8,6.2,17.8,6.3,17.8,6.3z"/>
		<path class="st0" d="M20.9,20.1L20.9,20.1l-0.1-4.4c0,0-0.6-0.1-0.6,0.2s0,4.3,0,4.3H20l0-4.4l-0.4-0.1L19.5,16h-0.2v4.2v0.3h0.1
			v0.1H20v-0.1h0.2v0.1l0.8-0.1v-0.2h-0.1V20.1z"/>
		<path class="st0" d="M17.4,5.2c0,0,0.1-0.2,0-0.2C17.4,5,17.3,5,17.4,5.2L17.4,5.2z"/>
		<path class="st0" d="M17.1,5c0,0-0.1,0-0.1,0.1s0,0.2,0,0.2S17.2,5.2,17.1,5z"/>
		<path class="st0" d="M17.3,6.3c0.1,0,0.1-0.1,0.1-0.1c0-0.1-0.1-0.2-0.1-0.2c-0.1,0-0.2,0.1-0.1,0.2C17.2,6.3,17.2,6.3,17.3,6.3z"
			/>
		<path class="st0" d="M16.9,6.2c0,0.2,0.2,0.2,0.2,0.2V6.1C16.9,6,16.9,6.2,16.9,6.2z"/>
		<polygon class="st0" points="19.2,20.2 19.1,15.5 18.5,15.6 18.5,20.2 18.4,20.5 18.6,20.5 18.6,20.6 19.1,20.6 19.1,20.5 
			19.3,20.5 19.2,20.5 		"/>
		<path class="st0" d="M15.9,20.8V23v0.1c0.3,0,0.6-0.1,0.9-0.2c0.4-0.1,0.8-0.2,1.2-0.2c0.1,0,0.2,0,0.3-0.1v-2L15.9,20.8z"/>
		<path class="st0" d="M9.7,21.3L9.7,21.3v2.5c0.8-0.1,1.6-0.1,2.4-0.2c0.1,0,0.1,0,0.2,0c0.5-0.1,1.1-0.1,1.6-0.2V21L9.7,21.3z"/>
		<path class="st0" d="M20.9,20.6h-0.5v0.2l-0.1,0.1v1.3c0.1,0,0.2-0.1,0.3-0.1c0.1,0,0.2,0,0.3-0.1c0,0,0,0,0.1,0L20.9,20.6
			L20.9,20.6z"/>
		<path class="st0" d="M18.7,20.7v0.2h-0.2v1.7c0,0,0,0,0.1,0s0.1,0,0.2,0s0.3-0.1,0.4-0.1v-1.8C19.2,20.7,18.7,20.7,18.7,20.7z"/>
		<path class="st0" d="M19.5,20.7v0.1h-0.1c0,0,0,0.8,0,1.6l0,0c0.2,0,0.3-0.1,0.5-0.1H20v-1.6H19.5z"/>
		<path class="st0" d="M16.9,3.6c-0.1,0-0.2,0.2-0.2,0.2c0.1,0,0.1,0,0.1,0C16.9,3.7,17,3.6,16.9,3.6z"/>
		<path class="st0" d="M12.4,11.2L12.4,11.2L12.4,11.2L12.4,11.2c0.1-0.2,0.5-1.1,4.2-1.4c0,0,0.7-0.1,3.7,0.4c0,0,0.6-0.1-2.6-0.5
			c0,0,1,0,1-0.5c0-0.6-0.5-0.4-0.8-0.5s-0.3-0.3-0.3-0.5c0,0,0,0.3,0.4,0.2c0.3-0.1,0.3-0.3,0.2-0.7c0,0,0.2,0.6,0.5,0.5
			c0.2,0,0.2-0.4,0.2-0.6c0.1,0.3,0.3,0.8,0.4,0.8c0.2,0.1,0.4,0-0.1-0.8c0,0,0.4,0.4,0.6,0.6c0.2,0.2,0.4,0.4,0.5,0.3
			c0,0,0.1,0.2,0.3,0.2l0,0c-0.1-0.1-0.1-0.1-0.2-0.2l-0.1-0.1l-0.1-0.1l-0.1-0.1L20,8.3l-0.1-0.1l-0.1-0.1L19.7,8l-0.1-0.1
			l-0.1-0.1h-0.1h-0.1c-0.1-0.1-0.1-0.1-0.2-0.2L19,7.4c0,0,0,0-0.1,0h-0.1l-0.1-0.1l-0.1-0.1c0,0-0.1,0-0.1-0.1L18.3,7l-0.2,0l0,0
			c-0.1,0-0.2,0-0.3-0.1h-1.4c-0.1,0-0.2,0-0.3,0.1c0,0-0.6,0.3-0.7,0.3c-0.1,0-0.1,0.1-0.2,0.1c-0.1,0-0.1,0.1-0.2,0.1
			c-0.1,0-0.1,0.1-0.2,0.1l-0.1,0.1c0,0-0.1,0-0.1,0.1l-0.1,0.1L14.4,8l-0.1,0.1l-0.1,0.1l-0.1,0.1l0,0l0,0C14,8.4,14,8.5,13.9,8.5
			c-0.1,0.1-0.1,0.1-0.2,0.2c0,0.1-0.1,0.1-0.1,0.2c0,0.1-0.1,0.1-0.1,0.2c-0.1,0.1-0.2,0.3-0.3,0.4l-0.1,0.1c0,0,0,0.1-0.1,0.1l0,0
			l0,0l0,0l0,0l0,0l0,0l0,0l0,0l0,0l0,0.2l-0.1,0.6v0.1l0,0l0,0l0,0c0,0-0.1,0-0.1,0.1c-0.1,0.1-0.1,0.1-0.2,0.2S12.4,11,12.4,11.2
			C12.4,11.1,12.4,11.1,12.4,11.2L12.4,11.2L12.4,11.2L12.4,11.2L12.4,11.2z"/>
		<path class="st0" d="M15.9,6.6c0,0,0.1,0,0.1-0.1s0-0.1,0-0.2c0,0,0,0.1,0,0.2s0.2,0,0.2-0.1s0.1-0.2,0.1-0.2s0,0.1,0,0.2
			s0.2,0,0.2-0.1S16.6,6,16.6,6c-0.1,0-0.2,0-0.2,0v0.1l0,0l0,0h-0.1c-0.1,0-0.1,0-0.1,0l0,0l0,0c-0.1,0-0.1,0-0.2,0.1l0,0l0,0l0,0
			c-0.1,0-0.1,0-0.1,0.1C15.8,6.4,15.9,6.6,15.9,6.6L15.9,6.6z"/>
		<path class="st0" d="M16.9,3.3c0.1-0.1,0-0.3,0-0.3s-0.2,0.1-0.2,0.2C16.7,3.4,16.8,3.4,16.9,3.3z"/>
		<path class="st0" d="M16.1,5.3c0,0,0,0.1,0,0.2C16.1,5.4,16.1,5.3,16.1,5.3z"/>
		<path class="st0" d="M9.4,15.9l2.7-0.4L11.8,16l-1.9,0.3l-0.2,0.4v2.1v1v0.5v0.3v0.1v0.1v0.1l0,0l0,0l0,0l0,0l0,0l0,0l0,0l0,0l0,0
			l0,0l0,0l0,0l0,0l0,0l0,0L9.8,21l0,0c0.5-0.1,4.2-0.5,4.2-0.4v-2.4c0,0,0.3-1.3,1.7-0.6c0,0-1.4-0.3-1.4,0.8H16v2.1l2.5-0.2
			l-0.1-4.9v-0.2l-0.3-0.1V15H18v-0.2h0.7l0.1-0.3l0.2,0.2h0.5v-0.2l0.3,0.2h0.5l0.1-0.2l0.3,0.2h0.6v-0.4h-0.5l-0.2-2.7h-0.1v0.2
			h-0.4l-0.2,0.1l0.2,2.4h-0.3l-0.1-2.6h-0.2v0.1L19,12l-0.1,0.2l0.2,2.4h-0.3l-0.1-2.7v-0.1l-0.3,0.1l0.2,0.1v0.2h-0.3l-0.1,0.1
			l0.1,2.4h-0.2l-0.1-3l0,0c0,0,0.2,0,0.2-0.2c0,0,0.1,0.2,0.3,0.2c0.2,0,0.4,0,0.4,0s0.2,0,0.1-0.3c0,0,0.1,0.2,0.2,0.2
			s0.6-0.1,0.6-0.1v-0.1c0,0,0.1,0.2,0.3,0.2c0.1,0,0.5,0,0.5,0v-0.3l0.4,0.4l0.1-0.1l0.3,0.3l0.1-0.1l-0.1-0.1l-0.1-0.1l0.1-0.1
			l-0.5-0.4l-0.1,0.1l-0.5-0.4l-0.1,0.1l-0.4-0.2l-0.2,0.1l-0.4-0.3l-0.4,0.2l-0.3-0.3L18,10.6l-0.2-0.2l-0.3,0.1L17.3,10
			c0,0-4,0-4.8,1.3c0,0,0,0.1-0.1,0.1l0,0l-0.1,0.1L11.2,12L11,12c-0.1,0-0.2,0.1-0.3,0.1l-0.1,0.1h-0.1l0,0l0,0l0,0l0,0l0,0l0,0
			l0,0l0,0l0,0h-0.1l0,0l0,0l0,0l0,0l0,0l0,0l2.2-0.4L12,12.3l-0.4,0.1L11,12.6l0,0h-0.5l-0.1-0.1l0,0l0,0l0,0v0.1v0.1l0.1,0.1l0,0
			v0.1l-0.1,0.6l-0.1,0.6c0,0.2,0,0.4,0,0.6c0,0.1,0,0.2,0,0.3v0.1v0.1v0.1v0.1h-0.1H9.9l0,0l0,0l0,0l0,0c0,0,0,0-0.1,0
			c0,0,0,0-0.1,0c0,0,0,0-0.1,0c0,0,0,0-0.1,0c0,0,0,0-0.1,0H9.3c0,0,0,0-0.1,0l0,0l0,0L9.4,15.9L9.4,15.9z"/>
		<path class="st0" d="M16.2,5.2L16.2,5.2L16.2,5.2c-0.1-0.1-0.1,0-0.1,0l0,0l0,0C16.1,5.3,16.2,5.3,16.2,5.2z"/>
		<path class="st0" d="M16.8,5l-0.2,0.1c0,0.1,0,0.1,0.1,0.1S16.8,5.1,16.8,5C16.8,5,16.8,5,16.8,5z"/>
		<path class="st0" d="M16.4,4.3c0.1,0,0.3,0,0.4-0.1s0.2-0.3,0-0.3S16.4,4,16.4,4.1c-0.1,0.1-0.1,0.3-0.1,0.3S16.3,4.3,16.4,4.3z"
			/>
		<path class="st0" d="M16.6,6.3c0,0.1,0.1,0.1,0.2,0S16.9,6,16.7,6h-0.1C16.6,6.2,16.6,6.3,16.6,6.3z"/>
		<path class="st0" d="M16.3,5.2c0.1,0,0.1-0.1,0.1-0.1V5C16.3,5,16.3,5,16.3,5.2L16.3,5.2L16.3,5.2L16.3,5.2
			C16.3,5.1,16.3,5.2,16.3,5.2z"/>
		<path class="st1" d="M7.9,24c0.5,0,1.1-0.1,1.7-0.1h0.1v-2.5l0,0l4.2-0.4v2.4c0.4-0.1,0.8-0.1,1.2-0.2c0.1,0,0.1,0,0.2,0
			c0.2,0,0.4-0.1,0.6-0.1V23v-2.2l2.4-0.1v2c0.1,0,0.2,0,0.2,0V21h0.2v-0.2h0.4v1.8h0.1h0.1c0-0.8,0-1.6,0-1.6h0.1v-0.1h0.5v1.6l0,0
			c0.1,0,0.1,0,0.2,0v-1.3l0.1-0.1v-0.2h0.5V21v1.3c0.9-0.2,1.8-0.5,2.6-0.8c0.9-0.3,1.7-0.6,2.5-0.9c0.4-0.2,0.8-0.3,1.2-0.5
			c0.3-0.1,0.6-0.3,1-0.4c0.2-0.1,0.3-0.2,0.5-0.2c0.2-0.1,0.3-0.2,0.5-0.2c0.1,0,0.2-0.1,0.3-0.1c0.3-1.1,0.4-2.3,0.4-3.4
			c0-7.7-6.2-13.9-13.9-13.9C8.3,1.4,2.1,7.6,2.1,15.3c0,3.3,1.2,6.4,3.1,8.8c0.6,0,1.2,0,2-0.1C7.4,24,7.7,24,7.9,24z M21,20.5
			l-0.8,0.1v-0.1H20v0.1h-0.6v-0.1h-0.1h-0.2v0.1h-0.5v-0.1h-0.1l0.1-0.3v-4.6l0.6-0.1l0.1,4.7v0.3h0.1v-0.3V16h0.2l0.1-0.3l0.4,0.1
			l0.1,4.4h0.2c0,0,0-3.9,0-4.3c0-0.3,0.6-0.2,0.6-0.2v4.4h0.1v0.1h0.1L21,20.5z M17.8,6.2L17.8,6.2C17.8,6.2,17.9,6.2,17.8,6.2
			c0.1,0,0.1,0.1,0.1,0.1C17.8,6.4,17.8,6.3,17.8,6.2C17.8,6.3,17.8,6.2,17.8,6.2z M17.5,6.2L17.5,6.2L17.5,6.2c0.1,0,0.1,0,0.1,0
			h0.1c0,0.1-0.1,0.1-0.1,0.1C17.6,6.3,17.6,6.3,17.5,6.2L17.5,6.2z M17.4,5c0.2,0,0,0.2,0,0.2S17.4,5.1,17.4,5
			C17.3,5,17.4,5,17.4,5z M17.3,6c0.1,0,0.1,0.1,0.1,0.2s-0.1,0.1-0.1,0.1c-0.1,0-0.1-0.1-0.1-0.1C17.2,6.1,17.2,6,17.3,6z M17,5.1
			C17,5,17.1,5,17.1,5c0,0.2-0.1,0.3-0.1,0.3S17,5.2,17,5.1z M17.1,6.1v0.3c0,0-0.2,0-0.2-0.2C16.9,6.2,16.9,6,17.1,6.1z M16.8,3.2
			C16.8,3.1,17,3,17,3s0.1,0.2,0,0.3C16.8,3.4,16.7,3.4,16.8,3.2z M16.9,3.6C17,3.6,17,3.7,16.9,3.6c-0.1,0.1-0.1,0.1-0.1,0.1
			C16.7,3.8,16.7,3.6,16.9,3.6z M16.4,4.1c0.1-0.1,0.3-0.2,0.4-0.2c0.2,0,0.1,0.2,0,0.3s-0.3,0.1-0.4,0.1s-0.1,0-0.1,0
			S16.3,4.2,16.4,4.1z M16.8,5.1c0,0,0,0.1-0.1,0.1s-0.1,0-0.1-0.1C16.7,5,16.8,5,16.8,5.1C16.8,5,16.8,5,16.8,5.1z M16.8,6.1
			c0.1,0,0.1,0.2,0.1,0.3c-0.1,0.1-0.2,0-0.2,0c0-0.1,0-0.2,0-0.2C16.7,6.1,16.8,6.1,16.8,6.1z M16.3,5.1L16.3,5.1L16.3,5.1
			L16.3,5.1C16.3,5,16.4,5,16.4,5v0.1C16.4,5.1,16.4,5.2,16.3,5.1C16.3,5.2,16.3,5.1,16.3,5.1z M16.1,5.2c0,0,0-0.1,0.1-0.1l0,0v0.1
			C16.2,5.3,16.1,5.3,16.1,5.2C16.1,5.3,16.1,5.3,16.1,5.2L16.1,5.2z M16.1,5.3c0,0,0,0.1,0,0.2C16,5.3,16.1,5.3,16.1,5.3z
			 M15.8,6.4l0.1-0.1l0,0l0,0l0,0c0,0,0.1,0,0.2-0.1l0,0l0,0c0,0,0,0,0.1,0h0.1l0,0l0,0c0,0,0,0,0-0.1c0,0,0.1,0,0.2,0
			c0,0-0.1,0.1-0.1,0.3c0,0.1-0.1,0.1-0.2,0.1c0-0.1,0-0.2,0-0.2s-0.1,0.1-0.1,0.2s-0.2,0.2-0.2,0.1s0-0.2,0-0.2s0,0.1,0,0.2
			s-0.1,0.1-0.1,0.1s-0.1,0.1-0.1,0.2C15.8,6.7,15.7,6.5,15.8,6.4z M12.4,11.1L12.4,11.1L12.4,11.1c0-0.1,0.1-0.2,0.1-0.2
			c0-0.1,0.1-0.1,0.2-0.2l0.1-0.1l0,0l0,0l0,0v-0.1L13,9.9l0,0l0,0l0,0l0,0l0,0l0,0l0,0l0,0l0,0l0,0l0.1-0.1l0.1-0.1
			c0.1-0.1,0.2-0.3,0.3-0.4c0-0.1,0.1-0.1,0.1-0.2c0-0.1,0.1-0.1,0.1-0.2c0-0.1,0.1-0.1,0.2-0.2C14,8.5,14,8.4,14.1,8.3l0,0l0,0
			l0.1-0.1l0.1-0.1L14.4,8l0.1-0.1l0.1-0.1l0.1-0.1l0.1-0.1c0.1,0,0.1-0.1,0.2-0.1c0.1,0,0.1-0.1,0.2-0.1c0.1,0,0.1-0.1,0.2-0.1
			c0.1,0,0.7-0.3,0.7-0.3c0.1,0,0.2,0,0.3-0.1h1.4c0.1,0,0.2,0,0.3,0.1l0,0l0.2,0.1l0.2,0.1c0,0,0.1,0,0.1,0.1l0.1,0.1l0.1,0.1h0.1
			c0,0,0,0,0.1,0l0.2,0.1c0.1,0.1,0.1,0.1,0.2,0.2h0.1h0.1l0.1,0.1L19.8,8l0.1,0.1L20,8.2l0,0.1l0.1,0.1l0.1,0.1l0.1,0.1l0.1,0.1
			c0.1,0.1,0.1,0.1,0.2,0.2l0,0c-0.2,0.1-0.3-0.2-0.3-0.2c-0.2,0.1-0.4-0.1-0.5-0.3c-0.2-0.2-0.6-0.6-0.6-0.6
			c0.5,0.8,0.3,0.8,0.1,0.8c-0.1,0-0.3-0.5-0.4-0.8C19,8,19,8.4,18.7,8.4c-0.3,0-0.5-0.5-0.5-0.5c0.1,0.3,0.2,0.6-0.2,0.7
			c-0.3,0.1-0.4-0.2-0.4-0.2c-0.1,0.1,0,0.4,0.3,0.5s0.8-0.1,0.8,0.5s-1,0.5-1,0.5c3.2,0.3,2.6,0.5,2.6,0.5
			c-3.1-0.5-3.7-0.4-3.7-0.4C12.9,10.1,12.5,11,12.4,11.1L12.4,11.1C12.4,11.2,12.4,11.2,12.4,11.1C12.4,11.2,12.4,11.2,12.4,11.1
			C12.4,11.2,12.4,11.2,12.4,11.1C12.4,11.2,12.4,11.2,12.4,11.1C12.4,11.2,12.4,11.2,12.4,11.1z M9.3,15.7L9.3,15.7
			C9.3,15.7,9.4,15.7,9.3,15.7h0.1c0,0,0,0,0.1,0c0,0,0,0,0.1,0c0,0,0,0,0.1,0c0,0,0,0,0.1,0c0,0,0,0,0.1,0l0,0l0,0l0,0l0,0h0.3h0.1
			v-0.1v-0.1v-0.1v-0.1c0-0.1,0-0.2,0-0.3c0-0.2,0-0.4,0-0.6l0.1-0.6l0.1-0.6v-0.1l0,0L10.4,13v-0.1v-0.1l0,0l0,0l0,0l0.1,0.1H11
			l0.1-0.1l0.6-0.1l0.4-0.1l0.4-0.3l-2.2,0.4l0,0l0,0l0,0l0,0l0,0l0,0h0.1l0,0l0,0l0,0l0,0l0,0l0,0l0,0l0,0l0,0h0.1l0.1-0.1
			c0.1,0,0.2-0.1,0.3-0.1l0.3-0.1l1.1-0.5l0.1-0.1l0,0l0.1-0.1c0.8-1.3,4.8-1.3,4.8-1.3l0.1,0.5l0.3-0.1l0.2,0.2l0.5-0.2l0.3,0.3
			l0.4-0.2l0.4,0.3l0.2-0.1l0.4,0.2l0.1-0.1l0.5,0.4l0.1-0.1l0.5,0.4L21.2,12l0.1,0.1l0.1,0.1l-0.1,0.1L21,12l-0.1,0.1l-0.4-0.4V12
			c0,0-0.4,0.1-0.5,0c-0.1,0-0.3-0.2-0.3-0.2v0.1c0,0-0.5,0.1-0.6,0.1s-0.2-0.2-0.2-0.2c0,0.3-0.1,0.3-0.1,0.3s-0.3,0-0.4,0
			c-0.2,0-0.3-0.2-0.3-0.2c0.1,0.2-0.2,0.2-0.2,0.2l0,0l0.1,3h0.2l-0.1-2.4l0.1-0.1h0.3v-0.2l-0.2-0.1l0.3-0.1v0.1l0.1,2.7H19
			l-0.2-2.4L19,12h0.4v-0.1h0.2l0.1,2.6H20l-0.2-2.4L20,12h0.4v-0.2h0.1l0.2,2.7h0.5v0.4h-0.6l-0.3-0.2l-0.1,0.2h-0.5l-0.3-0.2v0.2
			h-0.5l-0.2-0.2L18.6,15h-0.7v0.2H18v0.1l0.3,0.1v0.2l0.1,4.9l-2.5,0.2v-2.1h-1.7c0.1-1.2,1.4-0.8,1.4-0.8
			c-1.4-0.6-1.7,0.6-1.7,0.6v2.4c0,0-3.7,0.4-4.2,0.4l0,0l-0.1-0.1l0,0l0,0l0,0l0,0l0,0l0,0l0,0l0,0l0,0l0,0l0,0l0,0l0,0l0,0l0,0V21
			v-0.1v-0.1v-0.3V20v-1v-2.1l0.2-0.4l1.9-0.3l0.2-0.4l-2.7,0.4v-0.1L9.3,15.7L9.3,15.7z"/>
		<path class="st1" d="M32.1,18.7c-0.1,0.1-0.2,0.1-0.4,0.2c-0.2,0.1-0.3,0.2-0.5,0.3c-0.1,0.1-0.2,0.1-0.3,0.2
			c-0.1,0.1-0.2,0.1-0.3,0.2c-0.2,0.1-0.5,0.3-0.8,0.4c-0.2,0.1-0.4,0.2-0.6,0.3c-0.1,0-0.2,0.1-0.3,0.1c-0.2,0.1-0.3,0.2-0.5,0.2
			c-0.2,0.1-0.3,0.2-0.5,0.2c-0.3,0.1-0.6,0.3-1,0.4c-0.4,0.2-0.8,0.4-1.2,0.5c-0.8,0.3-1.6,0.6-2.5,0.9c-0.8,0.3-1.7,0.6-2.6,0.8
			c0,0,0,0-0.1,0s-0.2,0-0.3,0.1c-0.1,0-0.2,0.1-0.3,0.1c-0.1,0-0.1,0-0.2,0l0,0h-0.1c-0.2,0-0.3,0.1-0.5,0.1l0,0H19h-0.1
			c-0.1,0-0.3,0.1-0.4,0.1s-0.1,0-0.2,0c0,0,0,0-0.1,0s-0.2,0-0.2,0.1c-0.1,0-0.2,0-0.3,0.1c-0.4,0.1-0.8,0.2-1.2,0.2
			c-0.3,0.1-0.6,0.1-0.9,0.2c-0.2,0-0.4,0.1-0.6,0.1c-0.1,0-0.1,0-0.2,0c-0.4,0.1-0.8,0.1-1.2,0.2c-0.5,0.1-1.1,0.1-1.6,0.2
			c-0.1,0-0.1,0-0.2,0c-0.8,0.1-1.6,0.2-2.4,0.2H9.3c-0.6,0-1.1,0.1-1.7,0.1c-0.2,0-0.5,0-0.7,0c-0.7,0-1.4,0.1-2,0.1H4.8
			c-0.6,0-1.2,0-1.6,0.1c-0.2,0-0.4,0-0.6,0c-0.2,0-0.3,0-0.4,0C2.1,26,2,26,2,26c-0.1,0-0.1,0-0.1,0s0,0,0.1,0
			c0.1,0,0.1,0.1,0.3,0.1c0.1,0,0.3,0.1,0.4,0.1c0.2,0.1,0.4,0.1,0.6,0.2c0.4,0.1,1,0.3,1.6,0.4c0.4,0.1,0.9,0.2,1.4,0.3
			c0.2,0,0.5,0.1,0.7,0.1c0.8,0.1,1.6,0.2,2.5,0.3c0.1,0,0.1,0,0.2,0c0.8,0.1,1.7,0.1,2.6,0.1c1,0,2-0.1,3-0.2s2.1-0.3,3.1-0.5
			s2-0.5,3-0.8s1.9-0.7,2.8-1.1c0.6-0.3,1.3-0.6,1.8-0.9c0.2-0.1,0.5-0.3,0.7-0.4c0.7-0.4,1.3-0.8,1.9-1.3c0.1-0.1,0.2-0.1,0.2-0.2
			c0.6-0.5,1.2-1,1.6-1.4c0.1-0.1,0.2-0.2,0.3-0.3c0.1-0.1,0.2-0.2,0.3-0.3c0.2-0.2,0.4-0.4,0.5-0.6s0.3-0.3,0.4-0.5
			C32,19,32.1,18.8,32.1,18.7c0.2-0.2,0.3-0.3,0.3-0.3S32.3,18.6,32.1,18.7z"/>
	</g>
	<g>
		<path class="st1" d="M38.6,11.9c-0.6,0-1,0.2-1.3,0.7s-0.5,1.1-0.5,1.9c0,1.7,0.6,2.5,1.9,2.5c0.4,0,0.8-0.1,1.1-0.2
			c0.4-0.1,0.7-0.2,1.1-0.4v2c-0.7,0.3-1.6,0.5-2.5,0.5c-1.3,0-2.3-0.4-3-1.2c-0.7-0.8-1.1-1.9-1.1-3.3c0-0.9,0.2-1.7,0.5-2.4
			c0.3-0.7,0.8-1.2,1.5-1.6c0.6-0.4,1.4-0.6,2.3-0.6c0.9,0,1.9,0.2,2.7,0.6l-0.7,1.9c-0.3-0.2-0.6-0.3-1-0.4
			C39.3,12,39,11.9,38.6,11.9z"/>
		<path class="st1" d="M42.4,18.9v-8.8h2.4v8.8H42.4z"/>
		<path class="st1" d="M50.2,18.9h-2.4v-6.8h-2.1v-1.9h6.6v1.9h-2.1V18.9z"/>
		<path class="st1" d="M56.4,13.4l1.5-3.3h2.6l-2.9,5.3v3.4h-2.4v-3.4L52.3,10h2.6L56.4,13.4z"/>
		<path class="st1" d="M65.3,14.3h3v4.3c-0.5,0.1-0.9,0.3-1.4,0.3c-0.5,0.1-1,0.1-1.7,0.1c-1.3,0-2.4-0.4-3.1-1.2
			C61.3,17,61,15.9,61,14.5c0-0.9,0.2-1.7,0.5-2.4c0.4-0.7,0.9-1.2,1.6-1.6c0.7-0.4,1.5-0.5,2.4-0.5s1.8,0.2,2.6,0.5l-0.4,0.9
			c-0.8-0.3-1.6-0.5-2.3-0.5c-1.1,0-1.9,0.3-2.5,1c-0.6,0.6-0.9,1.5-0.9,2.6c0,1.2,0.3,2.1,0.9,2.7c0.6,0.6,1.4,0.9,2.5,0.9
			c0.6,0,1.2-0.1,1.8-0.2v-2.7h-2v-0.9H65.3z"/>
		<path class="st1" d="M76.7,10.1v5.7c0,1-0.3,1.8-0.9,2.4s-1.4,0.9-2.5,0.9s-1.9-0.3-2.5-0.9s-0.9-1.4-0.9-2.4v-5.7h1v5.7
			c0,0.7,0.2,1.3,0.6,1.7c0.4,0.4,1,0.6,1.8,0.6c0.7,0,1.3-0.2,1.7-0.6c0.4-0.4,0.6-1,0.6-1.7v-5.7C75.6,10.1,76.7,10.1,76.7,10.1z"
			/>
		<path class="st1" d="M83.6,18.9h-4.9v-8.8h4.9V11h-3.9v2.8h3.6v0.9h-3.6V18h3.9V18.9z"/>
		<path class="st1" d="M90.2,16.6c0,0.8-0.3,1.4-0.8,1.8C88.8,18.8,88,19,87,19s-1.8-0.1-2.4-0.4v-1c0.4,0.2,0.8,0.3,1.2,0.4
			c0.4,0.1,0.8,0.1,1.3,0.1c0.7,0,1.2-0.1,1.5-0.4s0.5-0.6,0.5-1.1c0-0.3-0.1-0.6-0.2-0.7c-0.1-0.2-0.3-0.4-0.6-0.5
			c-0.3-0.2-0.7-0.3-1.3-0.6c-0.8-0.3-1.4-0.6-1.7-1c-0.4-0.4-0.5-0.9-0.5-1.6c0-0.7,0.3-1.2,0.8-1.6c0.5-0.4,1.2-0.6,2-0.6
			c0.9,0,1.7,0.2,2.4,0.5l-0.3,0.9c-0.7-0.3-1.4-0.5-2.1-0.5c-0.5,0-1,0.1-1.3,0.3s-0.5,0.6-0.5,1c0,0.3,0.1,0.6,0.2,0.7
			c0.1,0.2,0.3,0.4,0.6,0.5c0.3,0.2,0.7,0.3,1.2,0.5c0.9,0.3,1.6,0.7,1.9,1.1C90,15.5,90.2,16,90.2,16.6z"/>
		<path class="st1" d="M94.4,18.9h-1V11h-2.8v-0.9h6.6V11h-2.8C94.4,11,94.4,18.9,94.4,18.9z"/>
		<path class="st1" d="M104.8,18.9h-1v-4.1h-4.6v4.1h-1v-8.8h1v3.7h4.6v-3.7h1V18.9z"/>
		<path class="st1" d="M114.5,14.5c0,1.4-0.4,2.5-1.1,3.3s-1.7,1.2-3,1.2s-2.3-0.4-3-1.2c-0.7-0.8-1.1-1.9-1.1-3.3s0.4-2.5,1.1-3.3
			s1.7-1.2,3-1.2s2.2,0.4,3,1.2C114.2,12,114.5,13.1,114.5,14.5z M107.5,14.5c0,1.2,0.3,2.1,0.8,2.7s1.2,0.9,2.2,0.9
			s1.7-0.3,2.2-0.9s0.7-1.5,0.7-2.7s-0.2-2.1-0.7-2.7s-1.2-0.9-2.2-0.9s-1.7,0.3-2.2,0.9C107.8,12.4,107.5,13.3,107.5,14.5z"/>
		<path class="st1" d="M122.8,10.1v5.7c0,1-0.3,1.8-0.9,2.4s-1.4,0.9-2.5,0.9s-1.9-0.3-2.5-0.9s-0.9-1.4-0.9-2.4v-5.7h1v5.7
			c0,0.7,0.2,1.3,0.6,1.7s1,0.6,1.8,0.6c0.7,0,1.3-0.2,1.7-0.6c0.4-0.4,0.6-1,0.6-1.7v-5.7C121.7,10.1,122.8,10.1,122.8,10.1z"/>
		<path class="st1" d="M129.8,16.6c0,0.8-0.3,1.4-0.8,1.8c-0.6,0.4-1.3,0.6-2.3,0.6s-1.8-0.1-2.4-0.4v-1c0.4,0.2,0.8,0.3,1.2,0.4
			c0.4,0.1,0.8,0.1,1.3,0.1c0.7,0,1.2-0.1,1.5-0.4c0.3-0.3,0.5-0.6,0.5-1.1c0-0.3-0.1-0.6-0.2-0.7c-0.1-0.2-0.3-0.4-0.6-0.5
			c-0.3-0.2-0.7-0.3-1.3-0.6c-0.8-0.3-1.4-0.6-1.7-1c-0.3-0.4-0.5-0.9-0.5-1.6c0-0.7,0.3-1.2,0.8-1.6c0.5-0.4,1.2-0.6,2-0.6
			c0.9,0,1.7,0.2,2.4,0.5l-0.3,0.9c-0.7-0.3-1.4-0.5-2.1-0.5c-0.5,0-1,0.1-1.3,0.3s-0.5,0.6-0.5,1c0,0.3,0.1,0.6,0.2,0.7
			c0.1,0.2,0.3,0.4,0.6,0.5c0.3,0.2,0.7,0.3,1.2,0.5c0.9,0.3,1.6,0.7,1.9,1.1C129.6,15.5,129.8,16,129.8,16.6z"/>
		<path class="st1" d="M136.1,18.9h-4.9v-8.8h4.9V11h-3.9v2.8h3.6v0.9h-3.6V18h3.9V18.9z"/>
	</g>
</g>
</svg>
